<mxfile host="app.diagrams.net" modified="2023-05-16T15:05:26.570Z" agent="Mozilla/5.0 (Macintosh; Intel Mac OS X 10_15_7) AppleWebKit/537.36 (KHTML, like Gecko) Chrome/113.0.0.0 Safari/537.36" etag="NTjCUQgP0t43LNd9b7iH" version="21.2.9" type="google" pages="10">
  <diagram name="Classmates" id="l9UtsHgVqWcwVLJ1rjVj">
    <mxGraphModel dx="1026" dy="693" grid="1" gridSize="10" guides="1" tooltips="1" connect="1" arrows="1" fold="1" page="1" pageScale="1" pageWidth="827" pageHeight="1169" math="0" shadow="0">
      <root>
        <mxCell id="0" />
        <mxCell id="1" parent="0" />
        <mxCell id="t4VjIaH0rda4jzEB2erc-2" value="&lt;div style=&quot;color: rgb(33, 33, 33); background-color: rgb(255, 255, 254); font-family: Menlo, Monaco, &amp;quot;Courier New&amp;quot;, monospace; line-height: 18px;&quot;&gt;Ivan&lt;/div&gt;" style="ellipse;whiteSpace=wrap;html=1;aspect=fixed;" parent="1" vertex="1">
          <mxGeometry x="80" y="40" width="80" height="80" as="geometry" />
        </mxCell>
        <mxCell id="t4VjIaH0rda4jzEB2erc-3" value="&lt;b&gt;1&lt;/b&gt;" style="ellipse;whiteSpace=wrap;html=1;aspect=fixed;" parent="1" vertex="1">
          <mxGeometry x="110" y="40" width="20" height="20" as="geometry" />
        </mxCell>
        <mxCell id="t4VjIaH0rda4jzEB2erc-4" value="&lt;div style=&quot;color: rgb(33, 33, 33); background-color: rgb(255, 255, 254); font-family: Menlo, Monaco, &amp;quot;Courier New&amp;quot;, monospace; line-height: 18px;&quot;&gt;Alexey&lt;/div&gt;" style="ellipse;whiteSpace=wrap;html=1;aspect=fixed;" parent="1" vertex="1">
          <mxGeometry x="180" y="40" width="80" height="80" as="geometry" />
        </mxCell>
        <mxCell id="t4VjIaH0rda4jzEB2erc-5" value="&lt;div style=&quot;color: rgb(33, 33, 33); background-color: rgb(255, 255, 254); font-family: Menlo, Monaco, &amp;quot;Courier New&amp;quot;, monospace; line-height: 18px;&quot;&gt;Elena&lt;/div&gt;" style="ellipse;whiteSpace=wrap;html=1;aspect=fixed;" parent="1" vertex="1">
          <mxGeometry x="290" y="40" width="80" height="80" as="geometry" />
        </mxCell>
        <mxCell id="t4VjIaH0rda4jzEB2erc-6" value="&lt;div style=&quot;color: rgb(33, 33, 33); background-color: rgb(255, 255, 254); font-family: Menlo, Monaco, &amp;quot;Courier New&amp;quot;, monospace; line-height: 18px;&quot;&gt;Maria&lt;/div&gt;" style="ellipse;whiteSpace=wrap;html=1;aspect=fixed;" parent="1" vertex="1">
          <mxGeometry x="400" y="40" width="80" height="80" as="geometry" />
        </mxCell>
        <mxCell id="t4VjIaH0rda4jzEB2erc-7" value="Dmitry" style="ellipse;whiteSpace=wrap;html=1;aspect=fixed;" parent="1" vertex="1">
          <mxGeometry x="510" y="40" width="80" height="80" as="geometry" />
        </mxCell>
        <mxCell id="t4VjIaH0rda4jzEB2erc-8" value="&lt;div style=&quot;color: rgb(33, 33, 33); background-color: rgb(255, 255, 254); font-family: Menlo, Monaco, &amp;quot;Courier New&amp;quot;, monospace; line-height: 18px;&quot;&gt;Anna&lt;br&gt;&lt;/div&gt;" style="ellipse;whiteSpace=wrap;html=1;aspect=fixed;" parent="1" vertex="1">
          <mxGeometry x="80" y="140" width="80" height="80" as="geometry" />
        </mxCell>
        <mxCell id="t4VjIaH0rda4jzEB2erc-9" value="&lt;div style=&quot;color: rgb(33, 33, 33); background-color: rgb(255, 255, 254); font-family: Menlo, Monaco, &amp;quot;Courier New&amp;quot;, monospace; line-height: 18px;&quot;&gt;Alexandra&lt;br&gt;&lt;/div&gt;" style="ellipse;whiteSpace=wrap;html=1;aspect=fixed;" parent="1" vertex="1">
          <mxGeometry x="180" y="140" width="80" height="80" as="geometry" />
        </mxCell>
        <mxCell id="t4VjIaH0rda4jzEB2erc-10" value="&lt;div style=&quot;color: rgb(33, 33, 33); background-color: rgb(255, 255, 254); font-family: Menlo, Monaco, &amp;quot;Courier New&amp;quot;, monospace; line-height: 18px;&quot;&gt;Peter&lt;br&gt;&lt;/div&gt;" style="ellipse;whiteSpace=wrap;html=1;aspect=fixed;" parent="1" vertex="1">
          <mxGeometry x="290" y="140" width="80" height="80" as="geometry" />
        </mxCell>
        <mxCell id="t4VjIaH0rda4jzEB2erc-11" value="&lt;div style=&quot;color: rgb(33, 33, 33); background-color: rgb(255, 255, 254); font-family: Menlo, Monaco, &amp;quot;Courier New&amp;quot;, monospace; line-height: 18px;&quot;&gt;&lt;div style=&quot;line-height: 18px;&quot;&gt;Natalia&lt;/div&gt;&lt;/div&gt;" style="ellipse;whiteSpace=wrap;html=1;aspect=fixed;" parent="1" vertex="1">
          <mxGeometry x="400" y="140" width="80" height="80" as="geometry" />
        </mxCell>
        <mxCell id="t4VjIaH0rda4jzEB2erc-12" value="&lt;div style=&quot;color: rgb(33, 33, 33); background-color: rgb(255, 255, 254); font-family: Menlo, Monaco, &amp;quot;Courier New&amp;quot;, monospace; line-height: 18px;&quot;&gt;Andrew&lt;/div&gt;" style="ellipse;whiteSpace=wrap;html=1;aspect=fixed;" parent="1" vertex="1">
          <mxGeometry x="510" y="140" width="80" height="80" as="geometry" />
        </mxCell>
        <mxCell id="t4VjIaH0rda4jzEB2erc-13" value="&lt;b&gt;2&lt;/b&gt;" style="ellipse;whiteSpace=wrap;html=1;aspect=fixed;" parent="1" vertex="1">
          <mxGeometry x="210" y="40" width="20" height="20" as="geometry" />
        </mxCell>
        <mxCell id="t4VjIaH0rda4jzEB2erc-14" value="&lt;b&gt;3&lt;/b&gt;" style="ellipse;whiteSpace=wrap;html=1;aspect=fixed;" parent="1" vertex="1">
          <mxGeometry x="320" y="40" width="20" height="20" as="geometry" />
        </mxCell>
        <mxCell id="t4VjIaH0rda4jzEB2erc-15" value="&lt;b&gt;4&lt;/b&gt;" style="ellipse;whiteSpace=wrap;html=1;aspect=fixed;" parent="1" vertex="1">
          <mxGeometry x="430" y="40" width="20" height="20" as="geometry" />
        </mxCell>
        <mxCell id="t4VjIaH0rda4jzEB2erc-16" value="&lt;b&gt;5&lt;/b&gt;" style="ellipse;whiteSpace=wrap;html=1;aspect=fixed;" parent="1" vertex="1">
          <mxGeometry x="540" y="40" width="20" height="20" as="geometry" />
        </mxCell>
        <mxCell id="t4VjIaH0rda4jzEB2erc-17" value="&lt;b&gt;6&lt;/b&gt;" style="ellipse;whiteSpace=wrap;html=1;aspect=fixed;" parent="1" vertex="1">
          <mxGeometry x="110" y="140" width="20" height="20" as="geometry" />
        </mxCell>
        <mxCell id="t4VjIaH0rda4jzEB2erc-18" value="&lt;b&gt;7&lt;/b&gt;" style="ellipse;whiteSpace=wrap;html=1;aspect=fixed;" parent="1" vertex="1">
          <mxGeometry x="210" y="140" width="20" height="20" as="geometry" />
        </mxCell>
        <mxCell id="t4VjIaH0rda4jzEB2erc-19" value="&lt;b&gt;8&lt;/b&gt;" style="ellipse;whiteSpace=wrap;html=1;aspect=fixed;" parent="1" vertex="1">
          <mxGeometry x="320" y="140" width="20" height="20" as="geometry" />
        </mxCell>
        <mxCell id="t4VjIaH0rda4jzEB2erc-20" value="&lt;b&gt;9&lt;/b&gt;" style="ellipse;whiteSpace=wrap;html=1;aspect=fixed;" parent="1" vertex="1">
          <mxGeometry x="430" y="140" width="20" height="20" as="geometry" />
        </mxCell>
        <mxCell id="t4VjIaH0rda4jzEB2erc-21" value="&lt;b&gt;10&lt;/b&gt;" style="ellipse;whiteSpace=wrap;html=1;aspect=fixed;" parent="1" vertex="1">
          <mxGeometry x="540" y="140" width="20" height="20" as="geometry" />
        </mxCell>
      </root>
    </mxGraphModel>
  </diagram>
  <diagram id="A2DyUBWQJhqryDiesHJM" name="Disciplines">
    <mxGraphModel dx="1026" dy="3031" grid="1" gridSize="10" guides="1" tooltips="1" connect="1" arrows="1" fold="1" page="1" pageScale="1" pageWidth="827" pageHeight="1169" math="0" shadow="0">
      <root>
        <mxCell id="0" />
        <mxCell id="1" parent="0" />
        <mxCell id="Pww7Gds3xCZGMqGG-SM1-1" value="&lt;div style=&quot;color: rgb(33, 33, 33); background-color: rgb(255, 255, 254); font-family: Menlo, Monaco, &amp;quot;Courier New&amp;quot;, monospace; line-height: 18px;&quot;&gt;Mathematics&lt;/div&gt;" style="whiteSpace=wrap;html=1;aspect=fixed;" parent="1" vertex="1">
          <mxGeometry x="40" y="-2280" width="80" height="80" as="geometry" />
        </mxCell>
        <mxCell id="Pww7Gds3xCZGMqGG-SM1-2" value="&lt;b&gt;1&lt;/b&gt;" style="whiteSpace=wrap;html=1;aspect=fixed;" parent="1" vertex="1">
          <mxGeometry x="70" y="-2280" width="20" height="20" as="geometry" />
        </mxCell>
        <mxCell id="Pww7Gds3xCZGMqGG-SM1-3" value="&lt;div style=&quot;color: rgb(33, 33, 33); background-color: rgb(255, 255, 254); font-family: Menlo, Monaco, &amp;quot;Courier New&amp;quot;, monospace; line-height: 18px;&quot;&gt;Physics&lt;/div&gt;" style="whiteSpace=wrap;html=1;aspect=fixed;" parent="1" vertex="1">
          <mxGeometry x="150" y="-2280" width="80" height="80" as="geometry" />
        </mxCell>
        <mxCell id="Pww7Gds3xCZGMqGG-SM1-4" value="&lt;b&gt;2&lt;/b&gt;" style="whiteSpace=wrap;html=1;aspect=fixed;" parent="1" vertex="1">
          <mxGeometry x="180" y="-2280" width="20" height="20" as="geometry" />
        </mxCell>
        <mxCell id="Pww7Gds3xCZGMqGG-SM1-5" value="&lt;div style=&quot;color: rgb(33, 33, 33); background-color: rgb(255, 255, 254); font-family: Menlo, Monaco, &amp;quot;Courier New&amp;quot;, monospace; line-height: 18px;&quot;&gt;History&lt;/div&gt;" style="whiteSpace=wrap;html=1;aspect=fixed;" parent="1" vertex="1">
          <mxGeometry x="260" y="-2280" width="80" height="80" as="geometry" />
        </mxCell>
        <mxCell id="Pww7Gds3xCZGMqGG-SM1-6" value="&lt;div style=&quot;color: rgb(33, 33, 33); background-color: rgb(255, 255, 254); font-family: Menlo, Monaco, &amp;quot;Courier New&amp;quot;, monospace; line-height: 18px;&quot;&gt;Chemistry&lt;/div&gt;" style="whiteSpace=wrap;html=1;aspect=fixed;fontSize=12;" parent="1" vertex="1">
          <mxGeometry x="374" y="-2280" width="80" height="80" as="geometry" />
        </mxCell>
        <mxCell id="Pww7Gds3xCZGMqGG-SM1-7" value="&lt;div style=&quot;color: rgb(33, 33, 33); background-color: rgb(255, 255, 254); font-family: Menlo, Monaco, &amp;quot;Courier New&amp;quot;, monospace; line-height: 18px;&quot;&gt;Literature&lt;/div&gt;" style="whiteSpace=wrap;html=1;aspect=fixed;" parent="1" vertex="1">
          <mxGeometry x="490" y="-2280" width="80" height="80" as="geometry" />
        </mxCell>
        <mxCell id="Pww7Gds3xCZGMqGG-SM1-8" value="&lt;b&gt;3&lt;/b&gt;" style="whiteSpace=wrap;html=1;aspect=fixed;" parent="1" vertex="1">
          <mxGeometry x="290" y="-2280" width="20" height="20" as="geometry" />
        </mxCell>
        <mxCell id="Pww7Gds3xCZGMqGG-SM1-9" value="&lt;b&gt;4&lt;/b&gt;" style="whiteSpace=wrap;html=1;aspect=fixed;" parent="1" vertex="1">
          <mxGeometry x="404" y="-2280" width="20" height="20" as="geometry" />
        </mxCell>
        <mxCell id="Pww7Gds3xCZGMqGG-SM1-10" value="&lt;b&gt;5&lt;/b&gt;" style="whiteSpace=wrap;html=1;aspect=fixed;" parent="1" vertex="1">
          <mxGeometry x="520" y="-2280" width="20" height="20" as="geometry" />
        </mxCell>
        <mxCell id="Pww7Gds3xCZGMqGG-SM1-11" value="&lt;div style=&quot;color: rgb(33, 33, 33); background-color: rgb(255, 255, 254); font-family: Menlo, Monaco, &amp;quot;Courier New&amp;quot;, monospace; line-height: 18px;&quot;&gt;Biology&lt;/div&gt;" style="whiteSpace=wrap;html=1;aspect=fixed;" parent="1" vertex="1">
          <mxGeometry x="40" y="-2160" width="80" height="80" as="geometry" />
        </mxCell>
        <mxCell id="Pww7Gds3xCZGMqGG-SM1-12" value="&lt;div style=&quot;color: rgb(33, 33, 33); background-color: rgb(255, 255, 254); font-family: Menlo, Monaco, &amp;quot;Courier New&amp;quot;, monospace; line-height: 18px;&quot;&gt;Economics&lt;/div&gt;" style="whiteSpace=wrap;html=1;aspect=fixed;" parent="1" vertex="1">
          <mxGeometry x="150" y="-2160" width="80" height="80" as="geometry" />
        </mxCell>
        <mxCell id="Pww7Gds3xCZGMqGG-SM1-13" value="&lt;div style=&quot;color: rgb(33, 33, 33); background-color: rgb(255, 255, 254); font-family: Menlo, Monaco, &amp;quot;Courier New&amp;quot;, monospace; line-height: 18px;&quot;&gt;Geography&lt;/div&gt;" style="whiteSpace=wrap;html=1;aspect=fixed;" parent="1" vertex="1">
          <mxGeometry x="260" y="-2160" width="80" height="80" as="geometry" />
        </mxCell>
        <mxCell id="Pww7Gds3xCZGMqGG-SM1-14" value="&lt;div style=&quot;color: rgb(33, 33, 33); background-color: rgb(255, 255, 254); font-family: Menlo, Monaco, &amp;quot;Courier New&amp;quot;, monospace; line-height: 18px;&quot;&gt;Foreign Language&lt;/div&gt;" style="whiteSpace=wrap;html=1;aspect=fixed;" parent="1" vertex="1">
          <mxGeometry x="374" y="-2160" width="80" height="80" as="geometry" />
        </mxCell>
        <mxCell id="Pww7Gds3xCZGMqGG-SM1-15" value="&lt;div style=&quot;color: rgb(33, 33, 33); background-color: rgb(255, 255, 254); font-family: Menlo, Monaco, &amp;quot;Courier New&amp;quot;, monospace; line-height: 18px;&quot;&gt;Informatics&lt;/div&gt;" style="whiteSpace=wrap;html=1;aspect=fixed;" parent="1" vertex="1">
          <mxGeometry x="490" y="-2160" width="80" height="80" as="geometry" />
        </mxCell>
        <mxCell id="Pww7Gds3xCZGMqGG-SM1-16" value="&lt;b&gt;6&lt;/b&gt;" style="whiteSpace=wrap;html=1;aspect=fixed;" parent="1" vertex="1">
          <mxGeometry x="70" y="-2160" width="20" height="20" as="geometry" />
        </mxCell>
        <mxCell id="Pww7Gds3xCZGMqGG-SM1-17" value="&lt;b&gt;7&lt;/b&gt;" style="whiteSpace=wrap;html=1;aspect=fixed;" parent="1" vertex="1">
          <mxGeometry x="180" y="-2160" width="20" height="20" as="geometry" />
        </mxCell>
        <mxCell id="Pww7Gds3xCZGMqGG-SM1-18" value="&lt;b&gt;8&lt;/b&gt;" style="whiteSpace=wrap;html=1;aspect=fixed;" parent="1" vertex="1">
          <mxGeometry x="290" y="-2160" width="20" height="20" as="geometry" />
        </mxCell>
        <mxCell id="Pww7Gds3xCZGMqGG-SM1-19" value="&lt;b&gt;9&lt;/b&gt;" style="whiteSpace=wrap;html=1;aspect=fixed;" parent="1" vertex="1">
          <mxGeometry x="404" y="-2160" width="20" height="20" as="geometry" />
        </mxCell>
        <mxCell id="Pww7Gds3xCZGMqGG-SM1-20" value="&lt;b&gt;10&lt;/b&gt;" style="whiteSpace=wrap;html=1;aspect=fixed;" parent="1" vertex="1">
          <mxGeometry x="520" y="-2160" width="20" height="20" as="geometry" />
        </mxCell>
      </root>
    </mxGraphModel>
  </diagram>
  <diagram id="a2ztiKsSf7DJ1JoED_7u" name="Movies">
    <mxGraphModel dx="1026" dy="693" grid="1" gridSize="10" guides="1" tooltips="1" connect="1" arrows="1" fold="1" page="1" pageScale="1" pageWidth="827" pageHeight="1169" math="0" shadow="0">
      <root>
        <mxCell id="0" />
        <mxCell id="1" parent="0" />
        <mxCell id="igXIvAErB0T16iaswFSW-2" value="&lt;div style=&quot;background-color: rgb(255, 255, 254); font-weight: normal; line-height: 18px;&quot;&gt;&lt;div style=&quot;&quot;&gt;&lt;div style=&quot;line-height: 18px;&quot;&gt;The Green Mile&lt;/div&gt;&lt;/div&gt;&lt;/div&gt;" style="ellipse;whiteSpace=wrap;html=1;fontFamily=Times New Roman;fontColor=#000000;" vertex="1" parent="1">
          <mxGeometry x="60" y="50" width="120" height="80" as="geometry" />
        </mxCell>
        <mxCell id="igXIvAErB0T16iaswFSW-3" value="1" style="ellipse;whiteSpace=wrap;html=1;fontFamily=Times New Roman;fontColor=#000000;" vertex="1" parent="1">
          <mxGeometry x="105" y="50" width="30" height="20" as="geometry" />
        </mxCell>
        <mxCell id="igXIvAErB0T16iaswFSW-4" value="&lt;div style=&quot;background-color: rgb(255, 255, 254); line-height: 18px;&quot;&gt;Interstellar&lt;/div&gt;" style="ellipse;whiteSpace=wrap;html=1;fontFamily=Times New Roman;fontColor=#000000;" vertex="1" parent="1">
          <mxGeometry x="190" y="50" width="120" height="80" as="geometry" />
        </mxCell>
        <mxCell id="igXIvAErB0T16iaswFSW-5" value="2" style="ellipse;whiteSpace=wrap;html=1;fontFamily=Times New Roman;fontColor=#000000;" vertex="1" parent="1">
          <mxGeometry x="235" y="50" width="30" height="20" as="geometry" />
        </mxCell>
        <mxCell id="igXIvAErB0T16iaswFSW-6" value="&lt;meta charset=&quot;utf-8&quot;&gt;&lt;div style=&quot;background-color: rgb(255, 255, 254); font-weight: normal; font-size: 12px; line-height: 18px;&quot;&gt;&lt;div&gt;&lt;span style=&quot;&quot;&gt;A Beautiful Mind&lt;/span&gt;&lt;/div&gt;&lt;/div&gt;" style="ellipse;whiteSpace=wrap;html=1;fontFamily=Times New Roman;fontColor=#000000;" vertex="1" parent="1">
          <mxGeometry x="460" y="200" width="120" height="80" as="geometry" />
        </mxCell>
        <mxCell id="igXIvAErB0T16iaswFSW-7" value="9" style="ellipse;whiteSpace=wrap;html=1;fontFamily=Times New Roman;fontColor=#000000;" vertex="1" parent="1">
          <mxGeometry x="505" y="200" width="30" height="20" as="geometry" />
        </mxCell>
        <mxCell id="igXIvAErB0T16iaswFSW-8" value="&lt;meta charset=&quot;utf-8&quot;&gt;&lt;div style=&quot;background-color: rgb(255, 255, 254); font-weight: normal; font-size: 12px; line-height: 18px;&quot;&gt;&lt;div&gt;&lt;span style=&quot;&quot;&gt;Star Wars: Episode V &lt;/span&gt;&lt;/div&gt;&lt;/div&gt;" style="ellipse;whiteSpace=wrap;html=1;fontFamily=Times New Roman;fontColor=#000000;" vertex="1" parent="1">
          <mxGeometry x="320" y="200" width="120" height="80" as="geometry" />
        </mxCell>
        <mxCell id="igXIvAErB0T16iaswFSW-9" value="8" style="ellipse;whiteSpace=wrap;html=1;fontFamily=Times New Roman;fontColor=#000000;" vertex="1" parent="1">
          <mxGeometry x="365" y="200" width="30" height="20" as="geometry" />
        </mxCell>
        <mxCell id="igXIvAErB0T16iaswFSW-10" value="&lt;meta charset=&quot;utf-8&quot;&gt;&lt;div style=&quot;background-color: rgb(255, 255, 254); font-weight: normal; font-size: 12px; line-height: 18px;&quot;&gt;&lt;div&gt;&lt;span style=&quot;&quot;&gt;Braveheart&lt;/span&gt;&lt;/div&gt;&lt;/div&gt;" style="ellipse;whiteSpace=wrap;html=1;fontFamily=Times New Roman;fontColor=#000000;" vertex="1" parent="1">
          <mxGeometry x="190" y="200" width="120" height="80" as="geometry" />
        </mxCell>
        <mxCell id="igXIvAErB0T16iaswFSW-11" value="7" style="ellipse;whiteSpace=wrap;html=1;fontFamily=Times New Roman;fontColor=#000000;" vertex="1" parent="1">
          <mxGeometry x="235" y="200" width="30" height="20" as="geometry" />
        </mxCell>
        <mxCell id="igXIvAErB0T16iaswFSW-12" value="&lt;meta charset=&quot;utf-8&quot;&gt;&lt;div style=&quot;background-color: rgb(255, 255, 254); font-weight: normal; font-size: 12px; line-height: 18px;&quot;&gt;&lt;div&gt;&lt;span style=&quot;&quot;&gt;A Clockwork Orange&lt;/span&gt;&lt;/div&gt;&lt;/div&gt;" style="ellipse;whiteSpace=wrap;html=1;fontFamily=Times New Roman;fontColor=#000000;" vertex="1" parent="1">
          <mxGeometry x="60" y="200" width="120" height="80" as="geometry" />
        </mxCell>
        <mxCell id="igXIvAErB0T16iaswFSW-13" value="6" style="ellipse;whiteSpace=wrap;html=1;fontFamily=Times New Roman;fontColor=#000000;" vertex="1" parent="1">
          <mxGeometry x="105" y="200" width="30" height="20" as="geometry" />
        </mxCell>
        <mxCell id="igXIvAErB0T16iaswFSW-14" value="&lt;meta charset=&quot;utf-8&quot;&gt;&lt;div style=&quot;background-color: rgb(255, 255, 254); font-weight: normal; font-size: 12px; line-height: 18px;&quot;&gt;&lt;div&gt;&lt;span style=&quot;&quot;&gt;Fight Club&lt;/span&gt;&lt;/div&gt;&lt;/div&gt;" style="ellipse;whiteSpace=wrap;html=1;fontFamily=Times New Roman;fontColor=#000000;" vertex="1" parent="1">
          <mxGeometry x="590" y="50" width="120" height="80" as="geometry" />
        </mxCell>
        <mxCell id="igXIvAErB0T16iaswFSW-15" value="5" style="ellipse;whiteSpace=wrap;html=1;fontFamily=Times New Roman;fontColor=#000000;" vertex="1" parent="1">
          <mxGeometry x="635" y="50" width="30" height="20" as="geometry" />
        </mxCell>
        <mxCell id="igXIvAErB0T16iaswFSW-16" value="&lt;div style=&quot;background-color: rgb(255, 255, 254); line-height: 18px;&quot;&gt;The Matrix&lt;/div&gt;" style="ellipse;whiteSpace=wrap;html=1;fontFamily=Times New Roman;fontColor=#000000;" vertex="1" parent="1">
          <mxGeometry x="460" y="50" width="120" height="80" as="geometry" />
        </mxCell>
        <mxCell id="igXIvAErB0T16iaswFSW-17" value="4" style="ellipse;whiteSpace=wrap;html=1;fontFamily=Times New Roman;fontColor=#000000;" vertex="1" parent="1">
          <mxGeometry x="505" y="50" width="30" height="20" as="geometry" />
        </mxCell>
        <mxCell id="igXIvAErB0T16iaswFSW-18" value="&lt;div style=&quot;background-color: rgb(255, 255, 254); line-height: 18px;&quot;&gt;The Lord of&lt;/div&gt;" style="ellipse;whiteSpace=wrap;html=1;fontFamily=Times New Roman;fontColor=#000000;" vertex="1" parent="1">
          <mxGeometry x="320" y="50" width="120" height="80" as="geometry" />
        </mxCell>
        <mxCell id="igXIvAErB0T16iaswFSW-19" value="3" style="ellipse;whiteSpace=wrap;html=1;fontFamily=Times New Roman;fontColor=#000000;" vertex="1" parent="1">
          <mxGeometry x="365" y="50" width="30" height="20" as="geometry" />
        </mxCell>
        <mxCell id="igXIvAErB0T16iaswFSW-22" value="&lt;meta charset=&quot;utf-8&quot;&gt;&lt;div style=&quot;background-color: rgb(255, 255, 254); font-weight: normal; font-size: 12px; line-height: 18px;&quot;&gt;&lt;div&gt;&lt;span style=&quot;&quot;&gt;Titanic&lt;/span&gt;&lt;/div&gt;&lt;/div&gt;" style="ellipse;whiteSpace=wrap;html=1;fontFamily=Times New Roman;fontColor=#000000;" vertex="1" parent="1">
          <mxGeometry x="600" y="200" width="120" height="80" as="geometry" />
        </mxCell>
        <mxCell id="igXIvAErB0T16iaswFSW-23" value="10" style="ellipse;whiteSpace=wrap;html=1;fontFamily=Times New Roman;fontColor=#000000;" vertex="1" parent="1">
          <mxGeometry x="645" y="200" width="30" height="20" as="geometry" />
        </mxCell>
      </root>
    </mxGraphModel>
  </diagram>
  <diagram id="VYgUnRrDGyttdzZOrMG6" name="Cities">
    <mxGraphModel dx="1026" dy="693" grid="1" gridSize="10" guides="1" tooltips="1" connect="1" arrows="1" fold="1" page="1" pageScale="1" pageWidth="827" pageHeight="1169" math="0" shadow="0">
      <root>
        <mxCell id="0" />
        <mxCell id="1" parent="0" />
        <mxCell id="hysJEK0_8dapm76mIb18-26" value="&lt;div style=&quot;background-color: rgb(255, 255, 254); font-weight: normal; font-size: 12px; line-height: 18px;&quot;&gt;&lt;div&gt;&lt;span style=&quot;&quot;&gt;San Francisco&lt;/span&gt;&lt;/div&gt;&lt;/div&gt;" style="rounded=0;whiteSpace=wrap;html=1;fontFamily=Times New Roman;fontColor=#000000;" vertex="1" parent="1">
          <mxGeometry x="660" y="150" width="120" height="60" as="geometry" />
        </mxCell>
        <mxCell id="hysJEK0_8dapm76mIb18-27" value="10" style="rounded=0;whiteSpace=wrap;html=1;fontFamily=Times New Roman;fontColor=#000000;" vertex="1" parent="1">
          <mxGeometry x="700" y="150" width="40" height="15" as="geometry" />
        </mxCell>
        <mxCell id="hysJEK0_8dapm76mIb18-29" value="&lt;meta charset=&quot;utf-8&quot;&gt;&lt;div style=&quot;background-color: rgb(255, 255, 254); font-weight: normal; font-size: 12px; line-height: 18px;&quot;&gt;&lt;div&gt;&lt;span style=&quot;&quot;&gt;London&lt;/span&gt;&lt;/div&gt;&lt;/div&gt;" style="rounded=0;whiteSpace=wrap;html=1;fontFamily=Times New Roman;fontColor=#000000;" vertex="1" parent="1">
          <mxGeometry x="660" y="50" width="120" height="60" as="geometry" />
        </mxCell>
        <mxCell id="hysJEK0_8dapm76mIb18-30" value="5" style="rounded=0;whiteSpace=wrap;html=1;fontFamily=Times New Roman;fontColor=#000000;" vertex="1" parent="1">
          <mxGeometry x="700" y="50" width="40" height="15" as="geometry" />
        </mxCell>
        <mxCell id="hysJEK0_8dapm76mIb18-39" value="&lt;meta charset=&quot;utf-8&quot;&gt;&lt;div style=&quot;background-color: rgb(255, 255, 254); font-weight: normal; font-size: 12px; line-height: 18px;&quot;&gt;&lt;div&gt;&lt;span style=&quot;&quot;&gt;Cairo&lt;/span&gt;&lt;/div&gt;&lt;/div&gt;" style="rounded=0;whiteSpace=wrap;html=1;fontFamily=Times New Roman;fontColor=#000000;" vertex="1" parent="1">
          <mxGeometry x="520" y="150" width="120" height="60" as="geometry" />
        </mxCell>
        <mxCell id="hysJEK0_8dapm76mIb18-40" value="9" style="rounded=0;whiteSpace=wrap;html=1;fontFamily=Times New Roman;fontColor=#000000;" vertex="1" parent="1">
          <mxGeometry x="560" y="150" width="40" height="15" as="geometry" />
        </mxCell>
        <mxCell id="hysJEK0_8dapm76mIb18-41" value="&lt;meta charset=&quot;utf-8&quot;&gt;&lt;div style=&quot;background-color: rgb(255, 255, 254); font-weight: normal; font-size: 12px; line-height: 18px;&quot;&gt;&lt;div&gt;&lt;span style=&quot;&quot;&gt;Tokyo&lt;/span&gt;&lt;/div&gt;&lt;/div&gt;" style="rounded=0;whiteSpace=wrap;html=1;fontFamily=Times New Roman;fontColor=#000000;" vertex="1" parent="1">
          <mxGeometry x="520" y="50" width="120" height="60" as="geometry" />
        </mxCell>
        <mxCell id="hysJEK0_8dapm76mIb18-42" value="4" style="rounded=0;whiteSpace=wrap;html=1;fontFamily=Times New Roman;fontColor=#000000;" vertex="1" parent="1">
          <mxGeometry x="560" y="50" width="40" height="15" as="geometry" />
        </mxCell>
        <mxCell id="hysJEK0_8dapm76mIb18-43" value="&lt;meta charset=&quot;utf-8&quot;&gt;&lt;div style=&quot;background-color: rgb(255, 255, 254); font-weight: normal; font-size: 12px; line-height: 18px;&quot;&gt;&lt;div&gt;&lt;span style=&quot;&quot;&gt;Sydney&lt;/span&gt;&lt;/div&gt;&lt;/div&gt;" style="rounded=0;whiteSpace=wrap;html=1;fontFamily=Times New Roman;fontColor=#000000;" vertex="1" parent="1">
          <mxGeometry x="390" y="150" width="120" height="60" as="geometry" />
        </mxCell>
        <mxCell id="hysJEK0_8dapm76mIb18-44" value="8" style="rounded=0;whiteSpace=wrap;html=1;fontFamily=Times New Roman;fontColor=#000000;" vertex="1" parent="1">
          <mxGeometry x="430" y="150" width="40" height="15" as="geometry" />
        </mxCell>
        <mxCell id="hysJEK0_8dapm76mIb18-45" value="&lt;meta charset=&quot;utf-8&quot;&gt;&lt;div style=&quot;background-color: rgb(255, 255, 254); font-weight: normal; font-size: 12px; line-height: 18px;&quot;&gt;&lt;div&gt;&lt;span style=&quot;&quot;&gt;Paris&lt;/span&gt;&lt;/div&gt;&lt;/div&gt;" style="rounded=0;whiteSpace=wrap;html=1;fontFamily=Times New Roman;fontColor=#000000;" vertex="1" parent="1">
          <mxGeometry x="390" y="50" width="120" height="60" as="geometry" />
        </mxCell>
        <mxCell id="hysJEK0_8dapm76mIb18-46" value="3" style="rounded=0;whiteSpace=wrap;html=1;fontFamily=Times New Roman;fontColor=#000000;" vertex="1" parent="1">
          <mxGeometry x="430" y="50" width="40" height="15" as="geometry" />
        </mxCell>
        <mxCell id="hysJEK0_8dapm76mIb18-47" value="&lt;meta charset=&quot;utf-8&quot;&gt;&lt;div style=&quot;background-color: rgb(255, 255, 254); font-weight: normal; font-size: 12px; line-height: 18px;&quot;&gt;&lt;div&gt;&lt;span style=&quot;&quot;&gt;Rome&lt;/span&gt;&lt;/div&gt;&lt;/div&gt;" style="rounded=0;whiteSpace=wrap;html=1;fontFamily=Times New Roman;fontColor=#000000;" vertex="1" parent="1">
          <mxGeometry x="250" y="150" width="120" height="60" as="geometry" />
        </mxCell>
        <mxCell id="hysJEK0_8dapm76mIb18-48" value="7" style="rounded=0;whiteSpace=wrap;html=1;fontFamily=Times New Roman;fontColor=#000000;" vertex="1" parent="1">
          <mxGeometry x="290" y="150" width="40" height="15" as="geometry" />
        </mxCell>
        <mxCell id="hysJEK0_8dapm76mIb18-49" value="&lt;meta charset=&quot;utf-8&quot;&gt;&lt;div style=&quot;background-color: rgb(255, 255, 254); font-weight: normal; font-size: 12px; line-height: 18px;&quot;&gt;&lt;div&gt;&lt;span style=&quot;&quot;&gt;New York&lt;/span&gt;&lt;/div&gt;&lt;/div&gt;" style="rounded=0;whiteSpace=wrap;html=1;fontFamily=Times New Roman;fontColor=#000000;" vertex="1" parent="1">
          <mxGeometry x="250" y="50" width="120" height="60" as="geometry" />
        </mxCell>
        <mxCell id="hysJEK0_8dapm76mIb18-50" value="2" style="rounded=0;whiteSpace=wrap;html=1;fontFamily=Times New Roman;fontColor=#000000;" vertex="1" parent="1">
          <mxGeometry x="290" y="50" width="40" height="15" as="geometry" />
        </mxCell>
        <mxCell id="hysJEK0_8dapm76mIb18-55" value="&lt;meta charset=&quot;utf-8&quot;&gt;&lt;div style=&quot;background-color: rgb(255, 255, 254); font-weight: normal; font-size: 12px; line-height: 18px;&quot;&gt;&lt;div&gt;&lt;span style=&quot;&quot;&gt;Berlin&lt;/span&gt;&lt;/div&gt;&lt;/div&gt;" style="rounded=0;whiteSpace=wrap;html=1;fontFamily=Times New Roman;fontColor=#000000;" vertex="1" parent="1">
          <mxGeometry x="110" y="150" width="120" height="60" as="geometry" />
        </mxCell>
        <mxCell id="hysJEK0_8dapm76mIb18-56" value="6" style="rounded=0;whiteSpace=wrap;html=1;fontFamily=Times New Roman;fontColor=#000000;" vertex="1" parent="1">
          <mxGeometry x="150" y="150" width="40" height="15" as="geometry" />
        </mxCell>
        <mxCell id="hysJEK0_8dapm76mIb18-57" value="&lt;meta charset=&quot;utf-8&quot;&gt;&lt;div style=&quot;background-color: rgb(255, 255, 254); font-weight: normal; font-size: 12px; line-height: 18px;&quot;&gt;&lt;div&gt;&lt;span style=&quot;&quot;&gt;Moscow&lt;/span&gt;&lt;/div&gt;&lt;/div&gt;" style="rounded=0;whiteSpace=wrap;html=1;fontFamily=Times New Roman;fontColor=#000000;" vertex="1" parent="1">
          <mxGeometry x="110" y="50" width="120" height="60" as="geometry" />
        </mxCell>
        <mxCell id="hysJEK0_8dapm76mIb18-58" value="1" style="rounded=0;whiteSpace=wrap;html=1;fontFamily=Times New Roman;fontColor=#000000;" vertex="1" parent="1">
          <mxGeometry x="150" y="50" width="40" height="15" as="geometry" />
        </mxCell>
      </root>
    </mxGraphModel>
  </diagram>
  <diagram id="eYU9uMxtJDnHIi0D6yfI" name="Books">
    <mxGraphModel dx="1026" dy="693" grid="1" gridSize="10" guides="1" tooltips="1" connect="1" arrows="1" fold="1" page="1" pageScale="1" pageWidth="827" pageHeight="1169" math="0" shadow="0">
      <root>
        <mxCell id="0" />
        <mxCell id="1" parent="0" />
        <mxCell id="swshTDu7aOagNSD003hA-1" value="" style="verticalLabelPosition=bottom;verticalAlign=top;html=1;shape=hexagon;perimeter=hexagonPerimeter2;arcSize=6;size=0.27;fontSize=12;fontFamily=Times New Roman;" parent="1" vertex="1">
          <mxGeometry x="40" y="40" width="130" height="80" as="geometry" />
        </mxCell>
        <mxCell id="swshTDu7aOagNSD003hA-2" value="" style="verticalLabelPosition=bottom;verticalAlign=top;html=1;shape=hexagon;perimeter=hexagonPerimeter2;arcSize=6;size=0.27;fontSize=12;fontFamily=Times New Roman;" parent="1" vertex="1">
          <mxGeometry x="87.5" y="40" width="35" height="20" as="geometry" />
        </mxCell>
        <mxCell id="swshTDu7aOagNSD003hA-3" value="1" style="text;html=1;strokeColor=none;fillColor=none;align=center;verticalAlign=middle;whiteSpace=wrap;rounded=0;fontSize=12;fontFamily=Times New Roman;" parent="1" vertex="1">
          <mxGeometry x="90" y="40" width="30" height="20" as="geometry" />
        </mxCell>
        <mxCell id="swshTDu7aOagNSD003hA-4" value="&lt;div style=&quot;color: rgb(33, 33, 33); background-color: rgb(255, 255, 254); font-size: 12px; line-height: 18px;&quot;&gt;&lt;font style=&quot;font-size: 12px;&quot;&gt;War and Peace&lt;/font&gt;&lt;/div&gt;" style="text;html=1;strokeColor=none;fillColor=none;align=center;verticalAlign=middle;whiteSpace=wrap;rounded=0;fontSize=12;fontFamily=Times New Roman;" parent="1" vertex="1">
          <mxGeometry x="60" y="60" width="90" height="50" as="geometry" />
        </mxCell>
        <mxCell id="swshTDu7aOagNSD003hA-7" value="" style="verticalLabelPosition=bottom;verticalAlign=top;html=1;shape=hexagon;perimeter=hexagonPerimeter2;arcSize=6;size=0.27;fontSize=12;fontFamily=Times New Roman;" parent="1" vertex="1">
          <mxGeometry x="190" y="40" width="130" height="80" as="geometry" />
        </mxCell>
        <mxCell id="swshTDu7aOagNSD003hA-8" value="" style="verticalLabelPosition=bottom;verticalAlign=top;html=1;shape=hexagon;perimeter=hexagonPerimeter2;arcSize=6;size=0.27;fontSize=12;fontFamily=Times New Roman;" parent="1" vertex="1">
          <mxGeometry x="237.5" y="40" width="35" height="20" as="geometry" />
        </mxCell>
        <mxCell id="swshTDu7aOagNSD003hA-9" value="2" style="text;html=1;strokeColor=none;fillColor=none;align=center;verticalAlign=middle;whiteSpace=wrap;rounded=0;fontSize=12;fontFamily=Times New Roman;" parent="1" vertex="1">
          <mxGeometry x="240" y="40" width="30" height="20" as="geometry" />
        </mxCell>
        <mxCell id="swshTDu7aOagNSD003hA-10" value="&lt;div style=&quot;color: rgb(33, 33, 33); background-color: rgb(255, 255, 254); font-size: 12px; line-height: 18px;&quot;&gt;Crime and Punishment&lt;/div&gt;" style="text;html=1;strokeColor=none;fillColor=none;align=center;verticalAlign=middle;whiteSpace=wrap;rounded=0;fontSize=12;fontFamily=Times New Roman;" parent="1" vertex="1">
          <mxGeometry x="210" y="60" width="90" height="50" as="geometry" />
        </mxCell>
        <mxCell id="swshTDu7aOagNSD003hA-11" value="" style="verticalLabelPosition=bottom;verticalAlign=top;html=1;shape=hexagon;perimeter=hexagonPerimeter2;arcSize=6;size=0.27;fontSize=12;fontFamily=Times New Roman;" parent="1" vertex="1">
          <mxGeometry x="330" y="40" width="150" height="80" as="geometry" />
        </mxCell>
        <mxCell id="swshTDu7aOagNSD003hA-12" value="" style="verticalLabelPosition=bottom;verticalAlign=top;html=1;shape=hexagon;perimeter=hexagonPerimeter2;arcSize=6;size=0.27;fontSize=12;fontFamily=Times New Roman;" parent="1" vertex="1">
          <mxGeometry x="387.5" y="40" width="35" height="20" as="geometry" />
        </mxCell>
        <mxCell id="swshTDu7aOagNSD003hA-13" value="3" style="text;html=1;strokeColor=none;fillColor=none;align=center;verticalAlign=middle;whiteSpace=wrap;rounded=0;fontSize=12;fontFamily=Times New Roman;" parent="1" vertex="1">
          <mxGeometry x="390" y="40" width="30" height="20" as="geometry" />
        </mxCell>
        <mxCell id="swshTDu7aOagNSD003hA-14" value="&lt;div style=&quot;color: rgb(33, 33, 33); background-color: rgb(255, 255, 254); line-height: 18px; font-size: 12px;&quot;&gt;&lt;font style=&quot;font-size: 12px;&quot;&gt;Harry Potter and the Philosopher&lt;/font&gt;&lt;/div&gt;" style="text;html=1;strokeColor=none;fillColor=none;align=center;verticalAlign=middle;whiteSpace=wrap;rounded=0;fontSize=12;fontFamily=Times New Roman;" parent="1" vertex="1">
          <mxGeometry x="350" y="55" width="110" height="50" as="geometry" />
        </mxCell>
        <mxCell id="swshTDu7aOagNSD003hA-15" value="" style="verticalLabelPosition=bottom;verticalAlign=top;html=1;shape=hexagon;perimeter=hexagonPerimeter2;arcSize=6;size=0.27;fontSize=12;fontFamily=Times New Roman;" parent="1" vertex="1">
          <mxGeometry x="490" y="40" width="130" height="80" as="geometry" />
        </mxCell>
        <mxCell id="swshTDu7aOagNSD003hA-16" value="" style="verticalLabelPosition=bottom;verticalAlign=top;html=1;shape=hexagon;perimeter=hexagonPerimeter2;arcSize=6;size=0.27;fontSize=12;fontFamily=Times New Roman;" parent="1" vertex="1">
          <mxGeometry x="537.5" y="40" width="35" height="20" as="geometry" />
        </mxCell>
        <mxCell id="swshTDu7aOagNSD003hA-17" value="4" style="text;html=1;strokeColor=none;fillColor=none;align=center;verticalAlign=middle;whiteSpace=wrap;rounded=0;fontSize=12;fontFamily=Times New Roman;" parent="1" vertex="1">
          <mxGeometry x="540" y="40" width="30" height="20" as="geometry" />
        </mxCell>
        <mxCell id="swshTDu7aOagNSD003hA-18" value="&lt;div style=&quot;color: rgb(33, 33, 33); background-color: rgb(255, 255, 254); font-size: 12px; line-height: 18px;&quot;&gt;1984&lt;/div&gt;" style="text;html=1;strokeColor=none;fillColor=none;align=center;verticalAlign=middle;whiteSpace=wrap;rounded=0;fontSize=12;fontFamily=Times New Roman;" parent="1" vertex="1">
          <mxGeometry x="490" y="60" width="130" height="50" as="geometry" />
        </mxCell>
        <mxCell id="swshTDu7aOagNSD003hA-19" value="" style="verticalLabelPosition=bottom;verticalAlign=top;html=1;shape=hexagon;perimeter=hexagonPerimeter2;arcSize=6;size=0.27;fontSize=10;" parent="1" vertex="1">
          <mxGeometry x="640" y="40" width="130" height="80" as="geometry" />
        </mxCell>
        <mxCell id="swshTDu7aOagNSD003hA-20" value="" style="verticalLabelPosition=bottom;verticalAlign=top;html=1;shape=hexagon;perimeter=hexagonPerimeter2;arcSize=6;size=0.27;fontSize=12;fontFamily=Times New Roman;" parent="1" vertex="1">
          <mxGeometry x="687.5" y="40" width="35" height="20" as="geometry" />
        </mxCell>
        <mxCell id="swshTDu7aOagNSD003hA-21" value="5" style="text;html=1;strokeColor=none;fillColor=none;align=center;verticalAlign=middle;whiteSpace=wrap;rounded=0;fontSize=12;fontFamily=Times New Roman;" parent="1" vertex="1">
          <mxGeometry x="690" y="40" width="30" height="20" as="geometry" />
        </mxCell>
        <mxCell id="swshTDu7aOagNSD003hA-22" value="&lt;div style=&quot;color: rgb(33, 33, 33); background-color: rgb(255, 255, 254); line-height: 18px; font-size: 12px;&quot;&gt;&lt;font style=&quot;font-size: 12px;&quot;&gt;The Great Gatsby&lt;/font&gt;&lt;/div&gt;" style="text;html=1;strokeColor=none;fillColor=none;align=center;verticalAlign=middle;whiteSpace=wrap;rounded=0;fontSize=12;fontFamily=Times New Roman;" parent="1" vertex="1">
          <mxGeometry x="645" y="60" width="120" height="50" as="geometry" />
        </mxCell>
        <mxCell id="swshTDu7aOagNSD003hA-23" value="" style="verticalLabelPosition=bottom;verticalAlign=top;html=1;shape=hexagon;perimeter=hexagonPerimeter2;arcSize=6;size=0.27;fontSize=12;fontFamily=Times New Roman;" parent="1" vertex="1">
          <mxGeometry x="40" y="140" width="130" height="80" as="geometry" />
        </mxCell>
        <mxCell id="swshTDu7aOagNSD003hA-24" value="" style="verticalLabelPosition=bottom;verticalAlign=top;html=1;shape=hexagon;perimeter=hexagonPerimeter2;arcSize=6;size=0.27;fontSize=12;fontFamily=Times New Roman;" parent="1" vertex="1">
          <mxGeometry x="87.5" y="140" width="35" height="20" as="geometry" />
        </mxCell>
        <mxCell id="swshTDu7aOagNSD003hA-25" value="6" style="text;html=1;strokeColor=none;fillColor=none;align=center;verticalAlign=middle;whiteSpace=wrap;rounded=0;fontSize=12;fontFamily=Times New Roman;" parent="1" vertex="1">
          <mxGeometry x="90" y="140" width="30" height="20" as="geometry" />
        </mxCell>
        <mxCell id="swshTDu7aOagNSD003hA-26" value="&lt;div style=&quot;color: rgb(33, 33, 33); background-color: rgb(255, 255, 254); line-height: 18px; font-size: 12px;&quot;&gt;&lt;font style=&quot;font-size: 12px;&quot;&gt;Murder on the Orient Express&lt;/font&gt;&lt;/div&gt;" style="text;html=1;strokeColor=none;fillColor=none;align=center;verticalAlign=middle;whiteSpace=wrap;rounded=0;fontSize=12;fontFamily=Times New Roman;" parent="1" vertex="1">
          <mxGeometry x="60" y="160" width="90" height="50" as="geometry" />
        </mxCell>
        <mxCell id="swshTDu7aOagNSD003hA-27" value="" style="verticalLabelPosition=bottom;verticalAlign=top;html=1;shape=hexagon;perimeter=hexagonPerimeter2;arcSize=6;size=0.27;fontSize=12;fontFamily=Times New Roman;" parent="1" vertex="1">
          <mxGeometry x="180" y="140" width="150" height="80" as="geometry" />
        </mxCell>
        <mxCell id="swshTDu7aOagNSD003hA-28" value="" style="verticalLabelPosition=bottom;verticalAlign=top;html=1;shape=hexagon;perimeter=hexagonPerimeter2;arcSize=6;size=0.27;fontSize=12;fontFamily=Times New Roman;" parent="1" vertex="1">
          <mxGeometry x="237.5" y="140" width="35" height="20" as="geometry" />
        </mxCell>
        <mxCell id="swshTDu7aOagNSD003hA-29" value="7" style="text;html=1;strokeColor=none;fillColor=none;align=center;verticalAlign=middle;whiteSpace=wrap;rounded=0;fontSize=12;fontFamily=Times New Roman;" parent="1" vertex="1">
          <mxGeometry x="240" y="140" width="30" height="20" as="geometry" />
        </mxCell>
        <mxCell id="swshTDu7aOagNSD003hA-30" value="&lt;div style=&quot;color: rgb(33, 33, 33); line-height: 18px; font-size: 12px;&quot;&gt;&lt;font style=&quot;font-size: 12px;&quot;&gt;Harry Potter and the Prisoner of Azkaban&lt;/font&gt;&lt;/div&gt;" style="text;html=1;strokeColor=none;fillColor=none;align=center;verticalAlign=middle;whiteSpace=wrap;rounded=0;fontSize=12;fontFamily=Times New Roman;" parent="1" vertex="1">
          <mxGeometry x="210" y="160" width="90" height="50" as="geometry" />
        </mxCell>
        <mxCell id="swshTDu7aOagNSD003hA-31" value="" style="verticalLabelPosition=bottom;verticalAlign=top;html=1;shape=hexagon;perimeter=hexagonPerimeter2;arcSize=6;size=0.27;fontSize=12;fontFamily=Times New Roman;" parent="1" vertex="1">
          <mxGeometry x="340" y="140" width="130" height="80" as="geometry" />
        </mxCell>
        <mxCell id="swshTDu7aOagNSD003hA-32" value="" style="verticalLabelPosition=bottom;verticalAlign=top;html=1;shape=hexagon;perimeter=hexagonPerimeter2;arcSize=6;size=0.27;fontSize=12;fontFamily=Times New Roman;" parent="1" vertex="1">
          <mxGeometry x="387.5" y="140" width="35" height="20" as="geometry" />
        </mxCell>
        <mxCell id="swshTDu7aOagNSD003hA-33" value="8" style="text;html=1;strokeColor=none;fillColor=none;align=center;verticalAlign=middle;whiteSpace=wrap;rounded=0;fontSize=12;fontFamily=Times New Roman;" parent="1" vertex="1">
          <mxGeometry x="390" y="140" width="30" height="20" as="geometry" />
        </mxCell>
        <mxCell id="swshTDu7aOagNSD003hA-34" value="&lt;div style=&quot;color: rgb(33, 33, 33); font-family: Menlo, Monaco, &amp;quot;Courier New&amp;quot;, monospace; line-height: 18px;&quot;&gt;&lt;font style=&quot;font-size: 11px;&quot;&gt;The Master and Margarita&lt;/font&gt;&lt;/div&gt;" style="text;html=1;strokeColor=none;fillColor=none;align=center;verticalAlign=middle;whiteSpace=wrap;rounded=0;fontSize=12;fontFamily=Times New Roman;" parent="1" vertex="1">
          <mxGeometry x="360" y="160" width="90" height="50" as="geometry" />
        </mxCell>
        <mxCell id="swshTDu7aOagNSD003hA-35" value="" style="verticalLabelPosition=bottom;verticalAlign=top;html=1;shape=hexagon;perimeter=hexagonPerimeter2;arcSize=6;size=0.27;fontSize=12;fontFamily=Times New Roman;" parent="1" vertex="1">
          <mxGeometry x="490" y="140" width="130" height="80" as="geometry" />
        </mxCell>
        <mxCell id="swshTDu7aOagNSD003hA-36" value="" style="verticalLabelPosition=bottom;verticalAlign=top;html=1;shape=hexagon;perimeter=hexagonPerimeter2;arcSize=6;size=0.27;fontSize=12;fontFamily=Times New Roman;" parent="1" vertex="1">
          <mxGeometry x="537.5" y="140" width="35" height="20" as="geometry" />
        </mxCell>
        <mxCell id="swshTDu7aOagNSD003hA-37" value="9" style="text;html=1;strokeColor=none;fillColor=none;align=center;verticalAlign=middle;whiteSpace=wrap;rounded=0;fontSize=12;fontFamily=Times New Roman;" parent="1" vertex="1">
          <mxGeometry x="540" y="140" width="30" height="20" as="geometry" />
        </mxCell>
        <mxCell id="swshTDu7aOagNSD003hA-38" value="&lt;div style=&quot;color: rgb(33, 33, 33); background-color: rgb(255, 255, 254); font-family: Menlo, Monaco, &amp;quot;Courier New&amp;quot;, monospace; line-height: 18px; font-size: 11px;&quot;&gt;Three Comrades&lt;/div&gt;" style="text;html=1;strokeColor=none;fillColor=none;align=center;verticalAlign=middle;whiteSpace=wrap;rounded=0;fontSize=12;fontFamily=Times New Roman;" parent="1" vertex="1">
          <mxGeometry x="510" y="160" width="90" height="50" as="geometry" />
        </mxCell>
        <mxCell id="swshTDu7aOagNSD003hA-39" value="" style="verticalLabelPosition=bottom;verticalAlign=top;html=1;shape=hexagon;perimeter=hexagonPerimeter2;arcSize=6;size=0.27;fontSize=10;" parent="1" vertex="1">
          <mxGeometry x="640" y="140" width="130" height="80" as="geometry" />
        </mxCell>
        <mxCell id="swshTDu7aOagNSD003hA-40" value="" style="verticalLabelPosition=bottom;verticalAlign=top;html=1;shape=hexagon;perimeter=hexagonPerimeter2;arcSize=6;size=0.27;fontSize=12;fontFamily=Times New Roman;" parent="1" vertex="1">
          <mxGeometry x="687.5" y="140" width="35" height="20" as="geometry" />
        </mxCell>
        <mxCell id="swshTDu7aOagNSD003hA-41" value="10" style="text;html=1;strokeColor=none;fillColor=none;align=center;verticalAlign=middle;whiteSpace=wrap;rounded=0;fontSize=12;fontFamily=Times New Roman;" parent="1" vertex="1">
          <mxGeometry x="690" y="140" width="30" height="20" as="geometry" />
        </mxCell>
        <mxCell id="swshTDu7aOagNSD003hA-42" value="&lt;div style=&quot;color: rgb(33, 33, 33); background-color: rgb(255, 255, 254); font-family: Menlo, Monaco, &amp;quot;Courier New&amp;quot;, monospace; line-height: 18px; font-size: 11px;&quot;&gt;Brave New World&lt;/div&gt;" style="text;html=1;strokeColor=none;fillColor=none;align=center;verticalAlign=middle;whiteSpace=wrap;rounded=0;fontSize=12;fontFamily=Times New Roman;" parent="1" vertex="1">
          <mxGeometry x="660" y="160" width="90" height="50" as="geometry" />
        </mxCell>
      </root>
    </mxGraphModel>
  </diagram>
  <diagram id="2v3p0F6Ujda3U2uqGUaJ" name="Be_Friends">
    <mxGraphModel grid="1" page="1" gridSize="10" guides="1" tooltips="1" connect="1" arrows="1" fold="1" pageScale="1" pageWidth="827" pageHeight="1169" math="0" shadow="0">
      <root>
        <mxCell id="0" />
        <mxCell id="1" parent="0" />
        <mxCell id="8dJQBnn4itKaebuvrVzt-1" value="&lt;div style=&quot;color: rgb(33, 33, 33); background-color: rgb(255, 255, 254); font-family: Menlo, Monaco, &amp;quot;Courier New&amp;quot;, monospace; line-height: 18px;&quot;&gt;Ivan&lt;/div&gt;" style="ellipse;whiteSpace=wrap;html=1;aspect=fixed;" vertex="1" parent="1">
          <mxGeometry x="90" y="140" width="80" height="80" as="geometry" />
        </mxCell>
        <mxCell id="8dJQBnn4itKaebuvrVzt-2" value="&lt;b&gt;1&lt;/b&gt;" style="ellipse;whiteSpace=wrap;html=1;aspect=fixed;" vertex="1" parent="1">
          <mxGeometry x="120" y="140" width="20" height="20" as="geometry" />
        </mxCell>
        <mxCell id="DXW7a5klzBUYs-WInY21-1" value="&lt;div style=&quot;color: rgb(33, 33, 33); background-color: rgb(255, 255, 254); font-family: Menlo, Monaco, &amp;quot;Courier New&amp;quot;, monospace; line-height: 18px;&quot;&gt;Ivan&lt;/div&gt;" style="ellipse;whiteSpace=wrap;html=1;aspect=fixed;" vertex="1" parent="1">
          <mxGeometry x="90" y="140" width="80" height="80" as="geometry" />
        </mxCell>
        <mxCell id="DXW7a5klzBUYs-WInY21-2" value="&lt;b&gt;1&lt;/b&gt;" style="ellipse;whiteSpace=wrap;html=1;aspect=fixed;" vertex="1" parent="1">
          <mxGeometry x="120" y="140" width="20" height="20" as="geometry" />
        </mxCell>
        <mxCell id="DXW7a5klzBUYs-WInY21-3" value="&lt;div style=&quot;color: rgb(33, 33, 33); background-color: rgb(255, 255, 254); font-family: Menlo, Monaco, &amp;quot;Courier New&amp;quot;, monospace; line-height: 18px;&quot;&gt;Alexey&lt;/div&gt;" style="ellipse;whiteSpace=wrap;html=1;aspect=fixed;" vertex="1" parent="1">
          <mxGeometry x="410" y="430" width="80" height="80" as="geometry" />
        </mxCell>
        <mxCell id="DXW7a5klzBUYs-WInY21-4" value="&lt;div style=&quot;color: rgb(33, 33, 33); background-color: rgb(255, 255, 254); font-family: Menlo, Monaco, &amp;quot;Courier New&amp;quot;, monospace; line-height: 18px;&quot;&gt;Elena&lt;/div&gt;" style="ellipse;whiteSpace=wrap;html=1;aspect=fixed;" vertex="1" parent="1">
          <mxGeometry x="580" y="235" width="80" height="80" as="geometry" />
        </mxCell>
        <mxCell id="DXW7a5klzBUYs-WInY21-5" value="&lt;div style=&quot;color: rgb(33, 33, 33); background-color: rgb(255, 255, 254); font-family: Menlo, Monaco, &amp;quot;Courier New&amp;quot;, monospace; line-height: 18px;&quot;&gt;Maria&lt;/div&gt;" style="ellipse;whiteSpace=wrap;html=1;aspect=fixed;" vertex="1" parent="1">
          <mxGeometry x="160" y="360" width="80" height="80" as="geometry" />
        </mxCell>
        <mxCell id="DXW7a5klzBUYs-WInY21-6" value="Dmitry" style="ellipse;whiteSpace=wrap;html=1;aspect=fixed;" vertex="1" parent="1">
          <mxGeometry x="240" y="50" width="80" height="80" as="geometry" />
        </mxCell>
        <mxCell id="DXW7a5klzBUYs-WInY21-7" value="&lt;div style=&quot;color: rgb(33, 33, 33); background-color: rgb(255, 255, 254); font-family: Menlo, Monaco, &amp;quot;Courier New&amp;quot;, monospace; line-height: 18px;&quot;&gt;Anna&lt;br&gt;&lt;/div&gt;" style="ellipse;whiteSpace=wrap;html=1;aspect=fixed;" vertex="1" parent="1">
          <mxGeometry x="280" y="450" width="80" height="80" as="geometry" />
        </mxCell>
        <mxCell id="DXW7a5klzBUYs-WInY21-8" value="&lt;div style=&quot;color: rgb(33, 33, 33); background-color: rgb(255, 255, 254); font-family: Menlo, Monaco, &amp;quot;Courier New&amp;quot;, monospace; line-height: 18px;&quot;&gt;Alexandra&lt;br&gt;&lt;/div&gt;" style="ellipse;whiteSpace=wrap;html=1;aspect=fixed;" vertex="1" parent="1">
          <mxGeometry x="300" y="295" width="80" height="80" as="geometry" />
        </mxCell>
        <mxCell id="DXW7a5klzBUYs-WInY21-9" value="&lt;div style=&quot;color: rgb(33, 33, 33); background-color: rgb(255, 255, 254); font-family: Menlo, Monaco, &amp;quot;Courier New&amp;quot;, monospace; line-height: 18px;&quot;&gt;Peter&lt;br&gt;&lt;/div&gt;" style="ellipse;whiteSpace=wrap;html=1;aspect=fixed;" vertex="1" parent="1">
          <mxGeometry x="290" y="180" width="80" height="80" as="geometry" />
        </mxCell>
        <mxCell id="DXW7a5klzBUYs-WInY21-10" value="&lt;div style=&quot;color: rgb(33, 33, 33); background-color: rgb(255, 255, 254); font-family: Menlo, Monaco, &amp;quot;Courier New&amp;quot;, monospace; line-height: 18px;&quot;&gt;&lt;div style=&quot;line-height: 18px;&quot;&gt;Natalia&lt;/div&gt;&lt;/div&gt;" style="ellipse;whiteSpace=wrap;html=1;aspect=fixed;" vertex="1" parent="1">
          <mxGeometry x="440" y="280" width="80" height="80" as="geometry" />
        </mxCell>
        <mxCell id="DXW7a5klzBUYs-WInY21-11" value="&lt;div style=&quot;color: rgb(33, 33, 33); background-color: rgb(255, 255, 254); font-family: Menlo, Monaco, &amp;quot;Courier New&amp;quot;, monospace; line-height: 18px;&quot;&gt;Andrew&lt;/div&gt;" style="ellipse;whiteSpace=wrap;html=1;aspect=fixed;" vertex="1" parent="1">
          <mxGeometry x="460" y="60" width="80" height="80" as="geometry" />
        </mxCell>
        <mxCell id="DXW7a5klzBUYs-WInY21-12" value="&lt;b&gt;2&lt;/b&gt;" style="ellipse;whiteSpace=wrap;html=1;aspect=fixed;" vertex="1" parent="1">
          <mxGeometry x="440" y="430" width="20" height="20" as="geometry" />
        </mxCell>
        <mxCell id="DXW7a5klzBUYs-WInY21-13" value="&lt;b&gt;3&lt;/b&gt;" style="ellipse;whiteSpace=wrap;html=1;aspect=fixed;" vertex="1" parent="1">
          <mxGeometry x="610" y="235" width="20" height="20" as="geometry" />
        </mxCell>
        <mxCell id="DXW7a5klzBUYs-WInY21-14" value="&lt;b&gt;4&lt;/b&gt;" style="ellipse;whiteSpace=wrap;html=1;aspect=fixed;" vertex="1" parent="1">
          <mxGeometry x="190" y="360" width="20" height="20" as="geometry" />
        </mxCell>
        <mxCell id="DXW7a5klzBUYs-WInY21-15" value="&lt;b&gt;5&lt;/b&gt;" style="ellipse;whiteSpace=wrap;html=1;aspect=fixed;" vertex="1" parent="1">
          <mxGeometry x="270" y="50" width="20" height="20" as="geometry" />
        </mxCell>
        <mxCell id="DXW7a5klzBUYs-WInY21-16" value="&lt;b&gt;6&lt;/b&gt;" style="ellipse;whiteSpace=wrap;html=1;aspect=fixed;" vertex="1" parent="1">
          <mxGeometry x="310" y="450" width="20" height="20" as="geometry" />
        </mxCell>
        <mxCell id="DXW7a5klzBUYs-WInY21-17" value="&lt;b&gt;7&lt;/b&gt;" style="ellipse;whiteSpace=wrap;html=1;aspect=fixed;" vertex="1" parent="1">
          <mxGeometry x="330" y="295" width="20" height="20" as="geometry" />
        </mxCell>
        <mxCell id="DXW7a5klzBUYs-WInY21-18" value="&lt;b&gt;8&lt;/b&gt;" style="ellipse;whiteSpace=wrap;html=1;aspect=fixed;" vertex="1" parent="1">
          <mxGeometry x="320" y="180" width="20" height="20" as="geometry" />
        </mxCell>
        <mxCell id="DXW7a5klzBUYs-WInY21-19" value="&lt;b&gt;9&lt;/b&gt;" style="ellipse;whiteSpace=wrap;html=1;aspect=fixed;" vertex="1" parent="1">
          <mxGeometry x="470" y="280" width="20" height="20" as="geometry" />
        </mxCell>
        <mxCell id="DXW7a5klzBUYs-WInY21-20" value="&lt;b&gt;10&lt;/b&gt;" style="ellipse;whiteSpace=wrap;html=1;aspect=fixed;" vertex="1" parent="1">
          <mxGeometry x="490" y="60" width="20" height="20" as="geometry" />
        </mxCell>
        <mxCell id="vbENhpfwU-GI9tfMidnW-1" value="" style="endArrow=classic;html=1;rounded=0;exitX=1;exitY=0;exitDx=0;exitDy=0;" edge="1" parent="1" source="DXW7a5klzBUYs-WInY21-1" target="DXW7a5klzBUYs-WInY21-6">
          <mxGeometry width="50" height="50" relative="1" as="geometry">
            <mxPoint x="340" y="250" as="sourcePoint" />
            <mxPoint x="390" y="200" as="targetPoint" />
          </mxGeometry>
        </mxCell>
        <mxCell id="vbENhpfwU-GI9tfMidnW-2" value="" style="endArrow=classic;html=1;rounded=0;entryX=0.25;entryY=0.088;entryDx=0;entryDy=0;entryPerimeter=0;exitX=0.5;exitY=1;exitDx=0;exitDy=0;" edge="1" parent="1" source="DXW7a5klzBUYs-WInY21-1" target="DXW7a5klzBUYs-WInY21-5">
          <mxGeometry width="50" height="50" relative="1" as="geometry">
            <mxPoint x="130" y="230" as="sourcePoint" />
            <mxPoint x="254" y="118" as="targetPoint" />
          </mxGeometry>
        </mxCell>
        <mxCell id="vbENhpfwU-GI9tfMidnW-3" value="" style="endArrow=classic;html=1;rounded=0;entryX=0.025;entryY=0.65;entryDx=0;entryDy=0;entryPerimeter=0;exitX=1;exitY=0.663;exitDx=0;exitDy=0;exitPerimeter=0;" edge="1" parent="1" source="DXW7a5klzBUYs-WInY21-1" target="DXW7a5klzBUYs-WInY21-9">
          <mxGeometry width="50" height="50" relative="1" as="geometry">
            <mxPoint x="240" y="270" as="sourcePoint" />
            <mxPoint x="190" y="377" as="targetPoint" />
          </mxGeometry>
        </mxCell>
        <mxCell id="vbENhpfwU-GI9tfMidnW-4" value="" style="endArrow=classic;html=1;rounded=0;entryX=0;entryY=0;entryDx=0;entryDy=0;exitX=1;exitY=1;exitDx=0;exitDy=0;" edge="1" parent="1" source="DXW7a5klzBUYs-WInY21-5" target="DXW7a5klzBUYs-WInY21-7">
          <mxGeometry width="50" height="50" relative="1" as="geometry">
            <mxPoint x="180" y="203" as="sourcePoint" />
            <mxPoint x="302" y="242" as="targetPoint" />
          </mxGeometry>
        </mxCell>
        <mxCell id="vbENhpfwU-GI9tfMidnW-5" value="" style="endArrow=classic;html=1;rounded=0;exitX=1;exitY=0.5;exitDx=0;exitDy=0;" edge="1" parent="1" source="DXW7a5klzBUYs-WInY21-7" target="DXW7a5klzBUYs-WInY21-3">
          <mxGeometry width="50" height="50" relative="1" as="geometry">
            <mxPoint x="190" y="213" as="sourcePoint" />
            <mxPoint x="312" y="252" as="targetPoint" />
          </mxGeometry>
        </mxCell>
        <mxCell id="vbENhpfwU-GI9tfMidnW-6" value="" style="endArrow=classic;html=1;rounded=0;exitX=0.038;exitY=0.413;exitDx=0;exitDy=0;exitPerimeter=0;entryX=0.763;entryY=0.925;entryDx=0;entryDy=0;entryPerimeter=0;" edge="1" parent="1" source="DXW7a5klzBUYs-WInY21-3" target="DXW7a5klzBUYs-WInY21-1">
          <mxGeometry width="50" height="50" relative="1" as="geometry">
            <mxPoint x="200" y="223" as="sourcePoint" />
            <mxPoint x="170" y="210" as="targetPoint" />
          </mxGeometry>
        </mxCell>
        <mxCell id="vbENhpfwU-GI9tfMidnW-7" value="" style="endArrow=classic;html=1;rounded=0;entryX=0;entryY=1;entryDx=0;entryDy=0;exitX=1;exitY=0;exitDx=0;exitDy=0;" edge="1" parent="1" source="DXW7a5klzBUYs-WInY21-3" target="DXW7a5klzBUYs-WInY21-4">
          <mxGeometry width="50" height="50" relative="1" as="geometry">
            <mxPoint x="210" y="233" as="sourcePoint" />
            <mxPoint x="332" y="272" as="targetPoint" />
          </mxGeometry>
        </mxCell>
        <mxCell id="vbENhpfwU-GI9tfMidnW-8" value="" style="endArrow=classic;html=1;rounded=0;entryX=0;entryY=0.5;entryDx=0;entryDy=0;exitX=1;exitY=0.5;exitDx=0;exitDy=0;" edge="1" parent="1" source="DXW7a5klzBUYs-WInY21-9" target="DXW7a5klzBUYs-WInY21-4">
          <mxGeometry width="50" height="50" relative="1" as="geometry">
            <mxPoint x="488" y="452" as="sourcePoint" />
            <mxPoint x="602" y="313" as="targetPoint" />
          </mxGeometry>
        </mxCell>
        <mxCell id="vbENhpfwU-GI9tfMidnW-9" value="" style="endArrow=classic;html=1;rounded=0;exitX=0.088;exitY=0.738;exitDx=0;exitDy=0;exitPerimeter=0;" edge="1" parent="1" source="DXW7a5klzBUYs-WInY21-4" target="DXW7a5klzBUYs-WInY21-10">
          <mxGeometry width="50" height="50" relative="1" as="geometry">
            <mxPoint x="630" y="410" as="sourcePoint" />
            <mxPoint x="590" y="285" as="targetPoint" />
          </mxGeometry>
        </mxCell>
        <mxCell id="vbENhpfwU-GI9tfMidnW-10" value="" style="endArrow=classic;html=1;rounded=0;entryX=0.025;entryY=0.638;entryDx=0;entryDy=0;exitX=1;exitY=0.5;exitDx=0;exitDy=0;entryPerimeter=0;" edge="1" parent="1" source="DXW7a5klzBUYs-WInY21-8" target="DXW7a5klzBUYs-WInY21-10">
          <mxGeometry width="50" height="50" relative="1" as="geometry">
            <mxPoint x="390" y="240" as="sourcePoint" />
            <mxPoint x="600" y="295" as="targetPoint" />
          </mxGeometry>
        </mxCell>
        <mxCell id="vbENhpfwU-GI9tfMidnW-11" value="" style="endArrow=classic;html=1;rounded=0;entryX=0.25;entryY=0.125;entryDx=0;entryDy=0;exitX=1;exitY=1;exitDx=0;exitDy=0;entryPerimeter=0;" edge="1" parent="1" source="DXW7a5klzBUYs-WInY21-1" target="DXW7a5klzBUYs-WInY21-8">
          <mxGeometry width="50" height="50" relative="1" as="geometry">
            <mxPoint x="400" y="250" as="sourcePoint" />
            <mxPoint x="610" y="305" as="targetPoint" />
          </mxGeometry>
        </mxCell>
        <mxCell id="vbENhpfwU-GI9tfMidnW-12" value="" style="endArrow=classic;html=1;rounded=0;entryX=0.625;entryY=0.988;entryDx=0;entryDy=0;exitX=0.5;exitY=0;exitDx=0;exitDy=0;entryPerimeter=0;" edge="1" parent="1" source="DXW7a5klzBUYs-WInY21-8" target="DXW7a5klzBUYs-WInY21-9">
          <mxGeometry width="50" height="50" relative="1" as="geometry">
            <mxPoint x="168" y="218" as="sourcePoint" />
            <mxPoint x="330" y="315" as="targetPoint" />
          </mxGeometry>
        </mxCell>
        <mxCell id="vbENhpfwU-GI9tfMidnW-13" value="" style="endArrow=classic;html=1;rounded=0;entryX=0;entryY=1;entryDx=0;entryDy=0;exitX=0.95;exitY=0.163;exitDx=0;exitDy=0;exitPerimeter=0;" edge="1" parent="1" source="DXW7a5klzBUYs-WInY21-9" target="DXW7a5klzBUYs-WInY21-11">
          <mxGeometry width="50" height="50" relative="1" as="geometry">
            <mxPoint x="350" y="305" as="sourcePoint" />
            <mxPoint x="350" y="269" as="targetPoint" />
          </mxGeometry>
        </mxCell>
        <mxCell id="vbENhpfwU-GI9tfMidnW-14" value="" style="endArrow=classic;html=1;rounded=0;exitX=1;exitY=0.5;exitDx=0;exitDy=0;" edge="1" parent="1" source="DXW7a5klzBUYs-WInY21-6" target="DXW7a5klzBUYs-WInY21-11">
          <mxGeometry width="50" height="50" relative="1" as="geometry">
            <mxPoint x="376" y="203" as="sourcePoint" />
            <mxPoint x="482" y="138" as="targetPoint" />
          </mxGeometry>
        </mxCell>
      </root>
    </mxGraphModel>
  </diagram>
  <diagram id="1F-CZ5rMWR_u8W-Jxuw7" name="Living">
    <mxGraphModel grid="1" page="1" gridSize="10" guides="1" tooltips="1" connect="1" arrows="1" fold="1" pageScale="1" pageWidth="827" pageHeight="1169" math="0" shadow="0">
      <root>
        <mxCell id="0" />
        <mxCell id="1" parent="0" />
        <mxCell id="PPbgWzA7IDM-Ue-ASAZV-1" value="&lt;div style=&quot;background-color: rgb(255, 255, 254); font-weight: normal; font-size: 12px; line-height: 18px;&quot;&gt;&lt;div&gt;&lt;span style=&quot;&quot;&gt;San Francisco&lt;/span&gt;&lt;/div&gt;&lt;/div&gt;" style="rounded=0;whiteSpace=wrap;html=1;fontFamily=Times New Roman;fontColor=#000000;" vertex="1" parent="1">
          <mxGeometry x="640" y="350" width="120" height="60" as="geometry" />
        </mxCell>
        <mxCell id="PPbgWzA7IDM-Ue-ASAZV-2" value="10" style="rounded=0;whiteSpace=wrap;html=1;fontFamily=Times New Roman;fontColor=#000000;" vertex="1" parent="1">
          <mxGeometry x="680" y="350" width="40" height="15" as="geometry" />
        </mxCell>
        <mxCell id="PPbgWzA7IDM-Ue-ASAZV-3" value="&lt;meta charset=&quot;utf-8&quot;&gt;&lt;div style=&quot;background-color: rgb(255, 255, 254); font-weight: normal; font-size: 12px; line-height: 18px;&quot;&gt;&lt;div&gt;&lt;span style=&quot;&quot;&gt;London&lt;/span&gt;&lt;/div&gt;&lt;/div&gt;" style="rounded=0;whiteSpace=wrap;html=1;fontFamily=Times New Roman;fontColor=#000000;" vertex="1" parent="1">
          <mxGeometry x="640" y="50" width="120" height="60" as="geometry" />
        </mxCell>
        <mxCell id="PPbgWzA7IDM-Ue-ASAZV-4" value="5" style="rounded=0;whiteSpace=wrap;html=1;fontFamily=Times New Roman;fontColor=#000000;" vertex="1" parent="1">
          <mxGeometry x="680" y="50" width="40" height="15" as="geometry" />
        </mxCell>
        <mxCell id="PPbgWzA7IDM-Ue-ASAZV-5" value="&lt;meta charset=&quot;utf-8&quot;&gt;&lt;div style=&quot;background-color: rgb(255, 255, 254); font-weight: normal; font-size: 12px; line-height: 18px;&quot;&gt;&lt;div&gt;&lt;span style=&quot;&quot;&gt;Cairo&lt;/span&gt;&lt;/div&gt;&lt;/div&gt;" style="rounded=0;whiteSpace=wrap;html=1;fontFamily=Times New Roman;fontColor=#000000;" vertex="1" parent="1">
          <mxGeometry x="500" y="350" width="120" height="60" as="geometry" />
        </mxCell>
        <mxCell id="PPbgWzA7IDM-Ue-ASAZV-6" value="9" style="rounded=0;whiteSpace=wrap;html=1;fontFamily=Times New Roman;fontColor=#000000;" vertex="1" parent="1">
          <mxGeometry x="540" y="350" width="40" height="15" as="geometry" />
        </mxCell>
        <mxCell id="PPbgWzA7IDM-Ue-ASAZV-7" value="&lt;meta charset=&quot;utf-8&quot;&gt;&lt;div style=&quot;background-color: rgb(255, 255, 254); font-weight: normal; font-size: 12px; line-height: 18px;&quot;&gt;&lt;div&gt;&lt;span style=&quot;&quot;&gt;Tokyo&lt;/span&gt;&lt;/div&gt;&lt;/div&gt;" style="rounded=0;whiteSpace=wrap;html=1;fontFamily=Times New Roman;fontColor=#000000;" vertex="1" parent="1">
          <mxGeometry x="500" y="50" width="120" height="60" as="geometry" />
        </mxCell>
        <mxCell id="PPbgWzA7IDM-Ue-ASAZV-8" value="4" style="rounded=0;whiteSpace=wrap;html=1;fontFamily=Times New Roman;fontColor=#000000;" vertex="1" parent="1">
          <mxGeometry x="540" y="50" width="40" height="15" as="geometry" />
        </mxCell>
        <mxCell id="PPbgWzA7IDM-Ue-ASAZV-9" value="&lt;meta charset=&quot;utf-8&quot;&gt;&lt;div style=&quot;background-color: rgb(255, 255, 254); font-weight: normal; font-size: 12px; line-height: 18px;&quot;&gt;&lt;div&gt;&lt;span style=&quot;&quot;&gt;Sydney&lt;/span&gt;&lt;/div&gt;&lt;/div&gt;" style="rounded=0;whiteSpace=wrap;html=1;fontFamily=Times New Roman;fontColor=#000000;" vertex="1" parent="1">
          <mxGeometry x="370" y="350" width="120" height="60" as="geometry" />
        </mxCell>
        <mxCell id="PPbgWzA7IDM-Ue-ASAZV-10" value="8" style="rounded=0;whiteSpace=wrap;html=1;fontFamily=Times New Roman;fontColor=#000000;" vertex="1" parent="1">
          <mxGeometry x="410" y="350" width="40" height="15" as="geometry" />
        </mxCell>
        <mxCell id="PPbgWzA7IDM-Ue-ASAZV-11" value="&lt;meta charset=&quot;utf-8&quot;&gt;&lt;div style=&quot;background-color: rgb(255, 255, 254); font-weight: normal; font-size: 12px; line-height: 18px;&quot;&gt;&lt;div&gt;&lt;span style=&quot;&quot;&gt;Paris&lt;/span&gt;&lt;/div&gt;&lt;/div&gt;" style="rounded=0;whiteSpace=wrap;html=1;fontFamily=Times New Roman;fontColor=#000000;" vertex="1" parent="1">
          <mxGeometry x="370" y="50" width="120" height="60" as="geometry" />
        </mxCell>
        <mxCell id="PPbgWzA7IDM-Ue-ASAZV-12" value="3" style="rounded=0;whiteSpace=wrap;html=1;fontFamily=Times New Roman;fontColor=#000000;" vertex="1" parent="1">
          <mxGeometry x="410" y="50" width="40" height="15" as="geometry" />
        </mxCell>
        <mxCell id="PPbgWzA7IDM-Ue-ASAZV-13" value="&lt;meta charset=&quot;utf-8&quot;&gt;&lt;div style=&quot;background-color: rgb(255, 255, 254); font-weight: normal; font-size: 12px; line-height: 18px;&quot;&gt;&lt;div&gt;&lt;span style=&quot;&quot;&gt;Rome&lt;/span&gt;&lt;/div&gt;&lt;/div&gt;" style="rounded=0;whiteSpace=wrap;html=1;fontFamily=Times New Roman;fontColor=#000000;" vertex="1" parent="1">
          <mxGeometry x="230" y="350" width="120" height="60" as="geometry" />
        </mxCell>
        <mxCell id="PPbgWzA7IDM-Ue-ASAZV-14" value="7" style="rounded=0;whiteSpace=wrap;html=1;fontFamily=Times New Roman;fontColor=#000000;" vertex="1" parent="1">
          <mxGeometry x="270" y="350" width="40" height="15" as="geometry" />
        </mxCell>
        <mxCell id="PPbgWzA7IDM-Ue-ASAZV-15" value="&lt;meta charset=&quot;utf-8&quot;&gt;&lt;div style=&quot;background-color: rgb(255, 255, 254); font-weight: normal; font-size: 12px; line-height: 18px;&quot;&gt;&lt;div&gt;&lt;span style=&quot;&quot;&gt;New York&lt;/span&gt;&lt;/div&gt;&lt;/div&gt;" style="rounded=0;whiteSpace=wrap;html=1;fontFamily=Times New Roman;fontColor=#000000;" vertex="1" parent="1">
          <mxGeometry x="230" y="50" width="120" height="60" as="geometry" />
        </mxCell>
        <mxCell id="PPbgWzA7IDM-Ue-ASAZV-16" value="2" style="rounded=0;whiteSpace=wrap;html=1;fontFamily=Times New Roman;fontColor=#000000;" vertex="1" parent="1">
          <mxGeometry x="270" y="50" width="40" height="15" as="geometry" />
        </mxCell>
        <mxCell id="PPbgWzA7IDM-Ue-ASAZV-17" value="&lt;meta charset=&quot;utf-8&quot;&gt;&lt;div style=&quot;background-color: rgb(255, 255, 254); font-weight: normal; font-size: 12px; line-height: 18px;&quot;&gt;&lt;div&gt;&lt;span style=&quot;&quot;&gt;Berlin&lt;/span&gt;&lt;/div&gt;&lt;/div&gt;" style="rounded=0;whiteSpace=wrap;html=1;fontFamily=Times New Roman;fontColor=#000000;" vertex="1" parent="1">
          <mxGeometry x="90" y="350" width="120" height="60" as="geometry" />
        </mxCell>
        <mxCell id="PPbgWzA7IDM-Ue-ASAZV-18" value="6" style="rounded=0;whiteSpace=wrap;html=1;fontFamily=Times New Roman;fontColor=#000000;" vertex="1" parent="1">
          <mxGeometry x="130" y="350" width="40" height="15" as="geometry" />
        </mxCell>
        <mxCell id="PPbgWzA7IDM-Ue-ASAZV-19" value="&lt;meta charset=&quot;utf-8&quot;&gt;&lt;div style=&quot;background-color: rgb(255, 255, 254); font-weight: normal; font-size: 12px; line-height: 18px;&quot;&gt;&lt;div&gt;&lt;span style=&quot;&quot;&gt;Moscow&lt;/span&gt;&lt;/div&gt;&lt;/div&gt;" style="rounded=0;whiteSpace=wrap;html=1;fontFamily=Times New Roman;fontColor=#000000;" vertex="1" parent="1">
          <mxGeometry x="90" y="50" width="120" height="60" as="geometry" />
        </mxCell>
        <mxCell id="PPbgWzA7IDM-Ue-ASAZV-20" value="1" style="rounded=0;whiteSpace=wrap;html=1;fontFamily=Times New Roman;fontColor=#000000;" vertex="1" parent="1">
          <mxGeometry x="130" y="50" width="40" height="15" as="geometry" />
        </mxCell>
        <mxCell id="hzbMgiL4P8iR4qKvU2ph-1" value="&lt;div style=&quot;color: rgb(33, 33, 33); background-color: rgb(255, 255, 254); font-family: Menlo, Monaco, &amp;quot;Courier New&amp;quot;, monospace; line-height: 18px;&quot;&gt;Ivan&lt;/div&gt;" style="ellipse;whiteSpace=wrap;html=1;aspect=fixed;" vertex="1" parent="1">
          <mxGeometry x="650" y="180" width="80" height="80" as="geometry" />
        </mxCell>
        <mxCell id="hzbMgiL4P8iR4qKvU2ph-2" value="&lt;b&gt;1&lt;/b&gt;" style="ellipse;whiteSpace=wrap;html=1;aspect=fixed;" vertex="1" parent="1">
          <mxGeometry x="680" y="180" width="20" height="20" as="geometry" />
        </mxCell>
        <mxCell id="hzbMgiL4P8iR4qKvU2ph-3" value="&lt;div style=&quot;color: rgb(33, 33, 33); background-color: rgb(255, 255, 254); font-family: Menlo, Monaco, &amp;quot;Courier New&amp;quot;, monospace; line-height: 18px;&quot;&gt;Alexey&lt;/div&gt;" style="ellipse;whiteSpace=wrap;html=1;aspect=fixed;" vertex="1" parent="1">
          <mxGeometry x="250" y="180" width="80" height="80" as="geometry" />
        </mxCell>
        <mxCell id="hzbMgiL4P8iR4qKvU2ph-4" value="&lt;div style=&quot;color: rgb(33, 33, 33); background-color: rgb(255, 255, 254); font-family: Menlo, Monaco, &amp;quot;Courier New&amp;quot;, monospace; line-height: 18px;&quot;&gt;Elena&lt;/div&gt;" style="ellipse;whiteSpace=wrap;html=1;aspect=fixed;" vertex="1" parent="1">
          <mxGeometry x="520" y="490" width="80" height="80" as="geometry" />
        </mxCell>
        <mxCell id="hzbMgiL4P8iR4qKvU2ph-5" value="&lt;div style=&quot;color: rgb(33, 33, 33); background-color: rgb(255, 255, 254); font-family: Menlo, Monaco, &amp;quot;Courier New&amp;quot;, monospace; line-height: 18px;&quot;&gt;Maria&lt;/div&gt;" style="ellipse;whiteSpace=wrap;html=1;aspect=fixed;" vertex="1" parent="1">
          <mxGeometry x="390" y="180" width="80" height="80" as="geometry" />
        </mxCell>
        <mxCell id="hzbMgiL4P8iR4qKvU2ph-6" value="Dmitry" style="ellipse;whiteSpace=wrap;html=1;aspect=fixed;" vertex="1" parent="1">
          <mxGeometry x="390" y="490" width="80" height="80" as="geometry" />
        </mxCell>
        <mxCell id="hzbMgiL4P8iR4qKvU2ph-7" value="&lt;div style=&quot;color: rgb(33, 33, 33); background-color: rgb(255, 255, 254); font-family: Menlo, Monaco, &amp;quot;Courier New&amp;quot;, monospace; line-height: 18px;&quot;&gt;Anna&lt;br&gt;&lt;/div&gt;" style="ellipse;whiteSpace=wrap;html=1;aspect=fixed;" vertex="1" parent="1">
          <mxGeometry x="110" y="180" width="80" height="80" as="geometry" />
        </mxCell>
        <mxCell id="hzbMgiL4P8iR4qKvU2ph-8" value="&lt;div style=&quot;color: rgb(33, 33, 33); background-color: rgb(255, 255, 254); font-family: Menlo, Monaco, &amp;quot;Courier New&amp;quot;, monospace; line-height: 18px;&quot;&gt;Alexandra&lt;br&gt;&lt;/div&gt;" style="ellipse;whiteSpace=wrap;html=1;aspect=fixed;" vertex="1" parent="1">
          <mxGeometry x="520" y="180" width="80" height="80" as="geometry" />
        </mxCell>
        <mxCell id="hzbMgiL4P8iR4qKvU2ph-9" value="&lt;div style=&quot;color: rgb(33, 33, 33); background-color: rgb(255, 255, 254); font-family: Menlo, Monaco, &amp;quot;Courier New&amp;quot;, monospace; line-height: 18px;&quot;&gt;Peter&lt;br&gt;&lt;/div&gt;" style="ellipse;whiteSpace=wrap;html=1;aspect=fixed;" vertex="1" parent="1">
          <mxGeometry x="660" y="490" width="80" height="80" as="geometry" />
        </mxCell>
        <mxCell id="hzbMgiL4P8iR4qKvU2ph-10" value="&lt;div style=&quot;color: rgb(33, 33, 33); background-color: rgb(255, 255, 254); font-family: Menlo, Monaco, &amp;quot;Courier New&amp;quot;, monospace; line-height: 18px;&quot;&gt;&lt;div style=&quot;line-height: 18px;&quot;&gt;Natalia&lt;/div&gt;&lt;/div&gt;" style="ellipse;whiteSpace=wrap;html=1;aspect=fixed;" vertex="1" parent="1">
          <mxGeometry x="250" y="490" width="80" height="80" as="geometry" />
        </mxCell>
        <mxCell id="hzbMgiL4P8iR4qKvU2ph-11" value="&lt;div style=&quot;color: rgb(33, 33, 33); background-color: rgb(255, 255, 254); font-family: Menlo, Monaco, &amp;quot;Courier New&amp;quot;, monospace; line-height: 18px;&quot;&gt;Andrew&lt;/div&gt;" style="ellipse;whiteSpace=wrap;html=1;aspect=fixed;" vertex="1" parent="1">
          <mxGeometry x="110" y="490" width="80" height="80" as="geometry" />
        </mxCell>
        <mxCell id="hzbMgiL4P8iR4qKvU2ph-12" value="&lt;b&gt;2&lt;/b&gt;" style="ellipse;whiteSpace=wrap;html=1;aspect=fixed;" vertex="1" parent="1">
          <mxGeometry x="280" y="180" width="20" height="20" as="geometry" />
        </mxCell>
        <mxCell id="hzbMgiL4P8iR4qKvU2ph-13" value="&lt;b&gt;3&lt;/b&gt;" style="ellipse;whiteSpace=wrap;html=1;aspect=fixed;" vertex="1" parent="1">
          <mxGeometry x="550" y="490" width="20" height="20" as="geometry" />
        </mxCell>
        <mxCell id="hzbMgiL4P8iR4qKvU2ph-14" value="&lt;b&gt;4&lt;/b&gt;" style="ellipse;whiteSpace=wrap;html=1;aspect=fixed;" vertex="1" parent="1">
          <mxGeometry x="420" y="180" width="20" height="20" as="geometry" />
        </mxCell>
        <mxCell id="hzbMgiL4P8iR4qKvU2ph-15" value="&lt;b&gt;5&lt;/b&gt;" style="ellipse;whiteSpace=wrap;html=1;aspect=fixed;" vertex="1" parent="1">
          <mxGeometry x="420" y="490" width="20" height="20" as="geometry" />
        </mxCell>
        <mxCell id="hzbMgiL4P8iR4qKvU2ph-16" value="&lt;b&gt;6&lt;/b&gt;" style="ellipse;whiteSpace=wrap;html=1;aspect=fixed;" vertex="1" parent="1">
          <mxGeometry x="140" y="180" width="20" height="20" as="geometry" />
        </mxCell>
        <mxCell id="hzbMgiL4P8iR4qKvU2ph-17" value="&lt;b&gt;7&lt;/b&gt;" style="ellipse;whiteSpace=wrap;html=1;aspect=fixed;" vertex="1" parent="1">
          <mxGeometry x="550" y="180" width="20" height="20" as="geometry" />
        </mxCell>
        <mxCell id="hzbMgiL4P8iR4qKvU2ph-18" value="&lt;b&gt;8&lt;/b&gt;" style="ellipse;whiteSpace=wrap;html=1;aspect=fixed;" vertex="1" parent="1">
          <mxGeometry x="690" y="490" width="20" height="20" as="geometry" />
        </mxCell>
        <mxCell id="hzbMgiL4P8iR4qKvU2ph-19" value="&lt;b&gt;9&lt;/b&gt;" style="ellipse;whiteSpace=wrap;html=1;aspect=fixed;" vertex="1" parent="1">
          <mxGeometry x="280" y="490" width="20" height="20" as="geometry" />
        </mxCell>
        <mxCell id="hzbMgiL4P8iR4qKvU2ph-20" value="&lt;b&gt;10&lt;/b&gt;" style="ellipse;whiteSpace=wrap;html=1;aspect=fixed;" vertex="1" parent="1">
          <mxGeometry x="140" y="490" width="20" height="20" as="geometry" />
        </mxCell>
        <mxCell id="Ub0gW3wZU3hTsDsIWkPp-1" value="" style="endArrow=classic;html=1;rounded=0;exitX=0.5;exitY=1;exitDx=0;exitDy=0;entryX=0;entryY=0;entryDx=0;entryDy=0;" edge="1" parent="1" source="PPbgWzA7IDM-Ue-ASAZV-19" target="hzbMgiL4P8iR4qKvU2ph-16">
          <mxGeometry width="50" height="50" relative="1" as="geometry">
            <mxPoint x="390" y="340" as="sourcePoint" />
            <mxPoint x="440" y="290" as="targetPoint" />
          </mxGeometry>
        </mxCell>
        <mxCell id="Ub0gW3wZU3hTsDsIWkPp-2" value="" style="endArrow=classic;html=1;rounded=0;exitX=0.5;exitY=1;exitDx=0;exitDy=0;entryX=0.5;entryY=0;entryDx=0;entryDy=0;" edge="1" parent="1" source="PPbgWzA7IDM-Ue-ASAZV-15" target="hzbMgiL4P8iR4qKvU2ph-3">
          <mxGeometry width="50" height="50" relative="1" as="geometry">
            <mxPoint x="400" y="350" as="sourcePoint" />
            <mxPoint x="450" y="300" as="targetPoint" />
          </mxGeometry>
        </mxCell>
        <mxCell id="Ub0gW3wZU3hTsDsIWkPp-3" value="" style="endArrow=classic;html=1;rounded=0;exitX=0.5;exitY=1;exitDx=0;exitDy=0;entryX=0.5;entryY=0;entryDx=0;entryDy=0;" edge="1" parent="1" source="PPbgWzA7IDM-Ue-ASAZV-11" target="hzbMgiL4P8iR4qKvU2ph-14">
          <mxGeometry width="50" height="50" relative="1" as="geometry">
            <mxPoint x="410" y="360" as="sourcePoint" />
            <mxPoint x="460" y="310" as="targetPoint" />
          </mxGeometry>
        </mxCell>
        <mxCell id="Ub0gW3wZU3hTsDsIWkPp-4" value="" style="endArrow=classic;html=1;rounded=0;exitX=0.558;exitY=0.967;exitDx=0;exitDy=0;exitPerimeter=0;entryX=0.5;entryY=0;entryDx=0;entryDy=0;" edge="1" parent="1" source="PPbgWzA7IDM-Ue-ASAZV-7" target="hzbMgiL4P8iR4qKvU2ph-17">
          <mxGeometry width="50" height="50" relative="1" as="geometry">
            <mxPoint x="420" y="370" as="sourcePoint" />
            <mxPoint x="470" y="320" as="targetPoint" />
          </mxGeometry>
        </mxCell>
        <mxCell id="Ub0gW3wZU3hTsDsIWkPp-5" value="" style="endArrow=classic;html=1;rounded=0;exitX=0.5;exitY=1;exitDx=0;exitDy=0;entryX=0.5;entryY=0;entryDx=0;entryDy=0;" edge="1" parent="1" source="PPbgWzA7IDM-Ue-ASAZV-3" target="hzbMgiL4P8iR4qKvU2ph-2">
          <mxGeometry width="50" height="50" relative="1" as="geometry">
            <mxPoint x="430" y="380" as="sourcePoint" />
            <mxPoint x="480" y="330" as="targetPoint" />
          </mxGeometry>
        </mxCell>
        <mxCell id="Ub0gW3wZU3hTsDsIWkPp-6" value="" style="endArrow=classic;html=1;rounded=0;exitX=0.5;exitY=1;exitDx=0;exitDy=0;entryX=0.5;entryY=0;entryDx=0;entryDy=0;" edge="1" parent="1" source="PPbgWzA7IDM-Ue-ASAZV-17" target="hzbMgiL4P8iR4qKvU2ph-20">
          <mxGeometry width="50" height="50" relative="1" as="geometry">
            <mxPoint x="440" y="390" as="sourcePoint" />
            <mxPoint x="490" y="340" as="targetPoint" />
          </mxGeometry>
        </mxCell>
        <mxCell id="Ub0gW3wZU3hTsDsIWkPp-7" value="" style="endArrow=classic;html=1;rounded=0;exitX=0.5;exitY=1;exitDx=0;exitDy=0;entryX=0.5;entryY=0;entryDx=0;entryDy=0;" edge="1" parent="1" source="PPbgWzA7IDM-Ue-ASAZV-13" target="hzbMgiL4P8iR4qKvU2ph-19">
          <mxGeometry width="50" height="50" relative="1" as="geometry">
            <mxPoint x="450" y="400" as="sourcePoint" />
            <mxPoint x="500" y="350" as="targetPoint" />
          </mxGeometry>
        </mxCell>
        <mxCell id="Ub0gW3wZU3hTsDsIWkPp-8" value="" style="endArrow=classic;html=1;rounded=0;exitX=0.5;exitY=1;exitDx=0;exitDy=0;entryX=0.5;entryY=0;entryDx=0;entryDy=0;" edge="1" parent="1" source="PPbgWzA7IDM-Ue-ASAZV-9" target="hzbMgiL4P8iR4qKvU2ph-15">
          <mxGeometry width="50" height="50" relative="1" as="geometry">
            <mxPoint x="460" y="410" as="sourcePoint" />
            <mxPoint x="510" y="360" as="targetPoint" />
          </mxGeometry>
        </mxCell>
        <mxCell id="Ub0gW3wZU3hTsDsIWkPp-9" value="" style="endArrow=classic;html=1;rounded=0;exitX=0.5;exitY=1;exitDx=0;exitDy=0;entryX=0.5;entryY=0;entryDx=0;entryDy=0;" edge="1" parent="1" source="PPbgWzA7IDM-Ue-ASAZV-5" target="hzbMgiL4P8iR4qKvU2ph-13">
          <mxGeometry width="50" height="50" relative="1" as="geometry">
            <mxPoint x="470" y="420" as="sourcePoint" />
            <mxPoint x="520" y="370" as="targetPoint" />
          </mxGeometry>
        </mxCell>
        <mxCell id="Ub0gW3wZU3hTsDsIWkPp-10" value="" style="endArrow=classic;html=1;rounded=0;exitX=0.5;exitY=1;exitDx=0;exitDy=0;entryX=0.5;entryY=0;entryDx=0;entryDy=0;" edge="1" parent="1" source="PPbgWzA7IDM-Ue-ASAZV-1" target="hzbMgiL4P8iR4qKvU2ph-18">
          <mxGeometry width="50" height="50" relative="1" as="geometry">
            <mxPoint x="480" y="430" as="sourcePoint" />
            <mxPoint x="530" y="380" as="targetPoint" />
          </mxGeometry>
        </mxCell>
      </root>
    </mxGraphModel>
  </diagram>
  <diagram id="uDuvb80lPulHlXu3k2hC" name="Writes_off_homework">
    <mxGraphModel grid="1" page="1" gridSize="10" guides="1" tooltips="1" connect="1" arrows="1" fold="1" pageScale="1" pageWidth="827" pageHeight="1169" math="0" shadow="0">
      <root>
        <mxCell id="0" />
        <mxCell id="1" parent="0" />
        <mxCell id="mhb0FvA2ONU_gtsZ9ifl-1" value="&lt;div style=&quot;color: rgb(33, 33, 33); background-color: rgb(255, 255, 254); font-family: Menlo, Monaco, &amp;quot;Courier New&amp;quot;, monospace; line-height: 18px;&quot;&gt;Mathematics&lt;/div&gt;" style="whiteSpace=wrap;html=1;aspect=fixed;" vertex="1" parent="1">
          <mxGeometry x="149" y="-2240" width="80" height="80" as="geometry" />
        </mxCell>
        <mxCell id="mhb0FvA2ONU_gtsZ9ifl-2" value="&lt;b&gt;1&lt;/b&gt;" style="whiteSpace=wrap;html=1;aspect=fixed;" vertex="1" parent="1">
          <mxGeometry x="179" y="-2240" width="20" height="20" as="geometry" />
        </mxCell>
        <mxCell id="mhb0FvA2ONU_gtsZ9ifl-3" value="&lt;div style=&quot;color: rgb(33, 33, 33); background-color: rgb(255, 255, 254); font-family: Menlo, Monaco, &amp;quot;Courier New&amp;quot;, monospace; line-height: 18px;&quot;&gt;Physics&lt;/div&gt;" style="whiteSpace=wrap;html=1;aspect=fixed;" vertex="1" parent="1">
          <mxGeometry x="259" y="-2240" width="80" height="80" as="geometry" />
        </mxCell>
        <mxCell id="mhb0FvA2ONU_gtsZ9ifl-4" value="&lt;b&gt;2&lt;/b&gt;" style="whiteSpace=wrap;html=1;aspect=fixed;" vertex="1" parent="1">
          <mxGeometry x="289" y="-2240" width="20" height="20" as="geometry" />
        </mxCell>
        <mxCell id="mhb0FvA2ONU_gtsZ9ifl-5" value="&lt;div style=&quot;color: rgb(33, 33, 33); background-color: rgb(255, 255, 254); font-family: Menlo, Monaco, &amp;quot;Courier New&amp;quot;, monospace; line-height: 18px;&quot;&gt;History&lt;/div&gt;" style="whiteSpace=wrap;html=1;aspect=fixed;" vertex="1" parent="1">
          <mxGeometry x="369" y="-2240" width="80" height="80" as="geometry" />
        </mxCell>
        <mxCell id="mhb0FvA2ONU_gtsZ9ifl-6" value="&lt;div style=&quot;color: rgb(33, 33, 33); background-color: rgb(255, 255, 254); font-family: Menlo, Monaco, &amp;quot;Courier New&amp;quot;, monospace; line-height: 18px;&quot;&gt;Chemistry&lt;/div&gt;" style="whiteSpace=wrap;html=1;aspect=fixed;fontSize=12;" vertex="1" parent="1">
          <mxGeometry x="483" y="-2240" width="80" height="80" as="geometry" />
        </mxCell>
        <mxCell id="mhb0FvA2ONU_gtsZ9ifl-7" value="&lt;div style=&quot;color: rgb(33, 33, 33); background-color: rgb(255, 255, 254); font-family: Menlo, Monaco, &amp;quot;Courier New&amp;quot;, monospace; line-height: 18px;&quot;&gt;Literature&lt;/div&gt;" style="whiteSpace=wrap;html=1;aspect=fixed;" vertex="1" parent="1">
          <mxGeometry x="599" y="-2240" width="80" height="80" as="geometry" />
        </mxCell>
        <mxCell id="mhb0FvA2ONU_gtsZ9ifl-8" value="&lt;b&gt;3&lt;/b&gt;" style="whiteSpace=wrap;html=1;aspect=fixed;" vertex="1" parent="1">
          <mxGeometry x="399" y="-2240" width="20" height="20" as="geometry" />
        </mxCell>
        <mxCell id="mhb0FvA2ONU_gtsZ9ifl-9" value="&lt;b&gt;4&lt;/b&gt;" style="whiteSpace=wrap;html=1;aspect=fixed;" vertex="1" parent="1">
          <mxGeometry x="513" y="-2240" width="20" height="20" as="geometry" />
        </mxCell>
        <mxCell id="mhb0FvA2ONU_gtsZ9ifl-10" value="&lt;b&gt;5&lt;/b&gt;" style="whiteSpace=wrap;html=1;aspect=fixed;" vertex="1" parent="1">
          <mxGeometry x="629" y="-2240" width="20" height="20" as="geometry" />
        </mxCell>
        <mxCell id="mhb0FvA2ONU_gtsZ9ifl-11" value="&lt;div style=&quot;color: rgb(33, 33, 33); background-color: rgb(255, 255, 254); font-family: Menlo, Monaco, &amp;quot;Courier New&amp;quot;, monospace; line-height: 18px;&quot;&gt;Biology&lt;/div&gt;" style="whiteSpace=wrap;html=1;aspect=fixed;" vertex="1" parent="1">
          <mxGeometry x="149" y="-1833" width="80" height="80" as="geometry" />
        </mxCell>
        <mxCell id="mhb0FvA2ONU_gtsZ9ifl-12" value="&lt;div style=&quot;color: rgb(33, 33, 33); background-color: rgb(255, 255, 254); font-family: Menlo, Monaco, &amp;quot;Courier New&amp;quot;, monospace; line-height: 18px;&quot;&gt;Economics&lt;/div&gt;" style="whiteSpace=wrap;html=1;aspect=fixed;" vertex="1" parent="1">
          <mxGeometry x="259" y="-1833" width="80" height="80" as="geometry" />
        </mxCell>
        <mxCell id="mhb0FvA2ONU_gtsZ9ifl-13" value="&lt;div style=&quot;color: rgb(33, 33, 33); background-color: rgb(255, 255, 254); font-family: Menlo, Monaco, &amp;quot;Courier New&amp;quot;, monospace; line-height: 18px;&quot;&gt;Geography&lt;/div&gt;" style="whiteSpace=wrap;html=1;aspect=fixed;" vertex="1" parent="1">
          <mxGeometry x="369" y="-1833" width="80" height="80" as="geometry" />
        </mxCell>
        <mxCell id="mhb0FvA2ONU_gtsZ9ifl-14" value="&lt;div style=&quot;color: rgb(33, 33, 33); background-color: rgb(255, 255, 254); font-family: Menlo, Monaco, &amp;quot;Courier New&amp;quot;, monospace; line-height: 18px;&quot;&gt;Foreign Language&lt;/div&gt;" style="whiteSpace=wrap;html=1;aspect=fixed;" vertex="1" parent="1">
          <mxGeometry x="483" y="-1833" width="80" height="80" as="geometry" />
        </mxCell>
        <mxCell id="mhb0FvA2ONU_gtsZ9ifl-15" value="&lt;div style=&quot;color: rgb(33, 33, 33); background-color: rgb(255, 255, 254); font-family: Menlo, Monaco, &amp;quot;Courier New&amp;quot;, monospace; line-height: 18px;&quot;&gt;Informatics&lt;/div&gt;" style="whiteSpace=wrap;html=1;aspect=fixed;" vertex="1" parent="1">
          <mxGeometry x="599" y="-1833" width="80" height="80" as="geometry" />
        </mxCell>
        <mxCell id="mhb0FvA2ONU_gtsZ9ifl-16" value="&lt;b&gt;6&lt;/b&gt;" style="whiteSpace=wrap;html=1;aspect=fixed;" vertex="1" parent="1">
          <mxGeometry x="179" y="-1833" width="20" height="20" as="geometry" />
        </mxCell>
        <mxCell id="mhb0FvA2ONU_gtsZ9ifl-17" value="&lt;b&gt;7&lt;/b&gt;" style="whiteSpace=wrap;html=1;aspect=fixed;" vertex="1" parent="1">
          <mxGeometry x="289" y="-1833" width="20" height="20" as="geometry" />
        </mxCell>
        <mxCell id="mhb0FvA2ONU_gtsZ9ifl-18" value="&lt;b&gt;8&lt;/b&gt;" style="whiteSpace=wrap;html=1;aspect=fixed;" vertex="1" parent="1">
          <mxGeometry x="399" y="-1833" width="20" height="20" as="geometry" />
        </mxCell>
        <mxCell id="mhb0FvA2ONU_gtsZ9ifl-19" value="&lt;b&gt;9&lt;/b&gt;" style="whiteSpace=wrap;html=1;aspect=fixed;" vertex="1" parent="1">
          <mxGeometry x="513" y="-1833" width="20" height="20" as="geometry" />
        </mxCell>
        <mxCell id="mhb0FvA2ONU_gtsZ9ifl-20" value="&lt;b&gt;10&lt;/b&gt;" style="whiteSpace=wrap;html=1;aspect=fixed;" vertex="1" parent="1">
          <mxGeometry x="629" y="-1833" width="20" height="20" as="geometry" />
        </mxCell>
        <mxCell id="35tl24v3VU_jj-kP0Xv5-1" value="&lt;div style=&quot;color: rgb(33, 33, 33); background-color: rgb(255, 255, 254); font-family: Menlo, Monaco, &amp;quot;Courier New&amp;quot;, monospace; line-height: 18px;&quot;&gt;Ivan&lt;/div&gt;" style="ellipse;whiteSpace=wrap;html=1;aspect=fixed;" vertex="1" parent="1">
          <mxGeometry x="483" y="-2110" width="80" height="80" as="geometry" />
        </mxCell>
        <mxCell id="35tl24v3VU_jj-kP0Xv5-2" value="&lt;b&gt;1&lt;/b&gt;" style="ellipse;whiteSpace=wrap;html=1;aspect=fixed;" vertex="1" parent="1">
          <mxGeometry x="513" y="-2110" width="20" height="20" as="geometry" />
        </mxCell>
        <mxCell id="35tl24v3VU_jj-kP0Xv5-3" value="&lt;div style=&quot;color: rgb(33, 33, 33); background-color: rgb(255, 255, 254); font-family: Menlo, Monaco, &amp;quot;Courier New&amp;quot;, monospace; line-height: 18px;&quot;&gt;Alexey&lt;/div&gt;" style="ellipse;whiteSpace=wrap;html=1;aspect=fixed;" vertex="1" parent="1">
          <mxGeometry x="149" y="-2110" width="80" height="80" as="geometry" />
        </mxCell>
        <mxCell id="35tl24v3VU_jj-kP0Xv5-4" value="&lt;div style=&quot;color: rgb(33, 33, 33); background-color: rgb(255, 255, 254); font-family: Menlo, Monaco, &amp;quot;Courier New&amp;quot;, monospace; line-height: 18px;&quot;&gt;Elena&lt;/div&gt;" style="ellipse;whiteSpace=wrap;html=1;aspect=fixed;" vertex="1" parent="1">
          <mxGeometry x="149" y="-1700" width="80" height="80" as="geometry" />
        </mxCell>
        <mxCell id="35tl24v3VU_jj-kP0Xv5-5" value="&lt;div style=&quot;color: rgb(33, 33, 33); background-color: rgb(255, 255, 254); font-family: Menlo, Monaco, &amp;quot;Courier New&amp;quot;, monospace; line-height: 18px;&quot;&gt;Maria&lt;/div&gt;" style="ellipse;whiteSpace=wrap;html=1;aspect=fixed;" vertex="1" parent="1">
          <mxGeometry x="374" y="-1700" width="80" height="80" as="geometry" />
        </mxCell>
        <mxCell id="35tl24v3VU_jj-kP0Xv5-6" value="Dmitry" style="ellipse;whiteSpace=wrap;html=1;aspect=fixed;" vertex="1" parent="1">
          <mxGeometry x="483" y="-1700" width="80" height="80" as="geometry" />
        </mxCell>
        <mxCell id="35tl24v3VU_jj-kP0Xv5-7" value="&lt;div style=&quot;color: rgb(33, 33, 33); background-color: rgb(255, 255, 254); font-family: Menlo, Monaco, &amp;quot;Courier New&amp;quot;, monospace; line-height: 18px;&quot;&gt;Anna&lt;br&gt;&lt;/div&gt;" style="ellipse;whiteSpace=wrap;html=1;aspect=fixed;" vertex="1" parent="1">
          <mxGeometry x="599" y="-2110" width="80" height="80" as="geometry" />
        </mxCell>
        <mxCell id="35tl24v3VU_jj-kP0Xv5-8" value="&lt;div style=&quot;color: rgb(33, 33, 33); background-color: rgb(255, 255, 254); font-family: Menlo, Monaco, &amp;quot;Courier New&amp;quot;, monospace; line-height: 18px;&quot;&gt;Alexandra&lt;br&gt;&lt;/div&gt;" style="ellipse;whiteSpace=wrap;html=1;aspect=fixed;" vertex="1" parent="1">
          <mxGeometry x="259" y="-2110" width="80" height="80" as="geometry" />
        </mxCell>
        <mxCell id="35tl24v3VU_jj-kP0Xv5-9" value="&lt;div style=&quot;color: rgb(33, 33, 33); background-color: rgb(255, 255, 254); font-family: Menlo, Monaco, &amp;quot;Courier New&amp;quot;, monospace; line-height: 18px;&quot;&gt;Peter&lt;br&gt;&lt;/div&gt;" style="ellipse;whiteSpace=wrap;html=1;aspect=fixed;" vertex="1" parent="1">
          <mxGeometry x="599" y="-1700" width="80" height="80" as="geometry" />
        </mxCell>
        <mxCell id="35tl24v3VU_jj-kP0Xv5-10" value="&lt;div style=&quot;color: rgb(33, 33, 33); background-color: rgb(255, 255, 254); font-family: Menlo, Monaco, &amp;quot;Courier New&amp;quot;, monospace; line-height: 18px;&quot;&gt;&lt;div style=&quot;line-height: 18px;&quot;&gt;Natalia&lt;/div&gt;&lt;/div&gt;" style="ellipse;whiteSpace=wrap;html=1;aspect=fixed;" vertex="1" parent="1">
          <mxGeometry x="369" y="-2110" width="80" height="80" as="geometry" />
        </mxCell>
        <mxCell id="35tl24v3VU_jj-kP0Xv5-11" value="&lt;div style=&quot;color: rgb(33, 33, 33); background-color: rgb(255, 255, 254); font-family: Menlo, Monaco, &amp;quot;Courier New&amp;quot;, monospace; line-height: 18px;&quot;&gt;Andrew&lt;/div&gt;" style="ellipse;whiteSpace=wrap;html=1;aspect=fixed;" vertex="1" parent="1">
          <mxGeometry x="269" y="-1700" width="80" height="80" as="geometry" />
        </mxCell>
        <mxCell id="35tl24v3VU_jj-kP0Xv5-12" value="&lt;b&gt;2&lt;/b&gt;" style="ellipse;whiteSpace=wrap;html=1;aspect=fixed;" vertex="1" parent="1">
          <mxGeometry x="179" y="-2110" width="20" height="20" as="geometry" />
        </mxCell>
        <mxCell id="35tl24v3VU_jj-kP0Xv5-13" value="&lt;b&gt;3&lt;/b&gt;" style="ellipse;whiteSpace=wrap;html=1;aspect=fixed;" vertex="1" parent="1">
          <mxGeometry x="179" y="-1700" width="20" height="20" as="geometry" />
        </mxCell>
        <mxCell id="35tl24v3VU_jj-kP0Xv5-14" value="&lt;b&gt;4&lt;/b&gt;" style="ellipse;whiteSpace=wrap;html=1;aspect=fixed;" vertex="1" parent="1">
          <mxGeometry x="404" y="-1700" width="20" height="20" as="geometry" />
        </mxCell>
        <mxCell id="35tl24v3VU_jj-kP0Xv5-15" value="&lt;b&gt;5&lt;/b&gt;" style="ellipse;whiteSpace=wrap;html=1;aspect=fixed;" vertex="1" parent="1">
          <mxGeometry x="513" y="-1700" width="20" height="20" as="geometry" />
        </mxCell>
        <mxCell id="35tl24v3VU_jj-kP0Xv5-16" value="&lt;b&gt;6&lt;/b&gt;" style="ellipse;whiteSpace=wrap;html=1;aspect=fixed;" vertex="1" parent="1">
          <mxGeometry x="629" y="-2110" width="20" height="20" as="geometry" />
        </mxCell>
        <mxCell id="35tl24v3VU_jj-kP0Xv5-17" value="&lt;b&gt;7&lt;/b&gt;" style="ellipse;whiteSpace=wrap;html=1;aspect=fixed;" vertex="1" parent="1">
          <mxGeometry x="289" y="-2110" width="20" height="20" as="geometry" />
        </mxCell>
        <mxCell id="35tl24v3VU_jj-kP0Xv5-18" value="&lt;b&gt;8&lt;/b&gt;" style="ellipse;whiteSpace=wrap;html=1;aspect=fixed;" vertex="1" parent="1">
          <mxGeometry x="629" y="-1700" width="20" height="20" as="geometry" />
        </mxCell>
        <mxCell id="35tl24v3VU_jj-kP0Xv5-19" value="&lt;b&gt;9&lt;/b&gt;" style="ellipse;whiteSpace=wrap;html=1;aspect=fixed;" vertex="1" parent="1">
          <mxGeometry x="399" y="-2110" width="20" height="20" as="geometry" />
        </mxCell>
        <mxCell id="35tl24v3VU_jj-kP0Xv5-20" value="&lt;b&gt;10&lt;/b&gt;" style="ellipse;whiteSpace=wrap;html=1;aspect=fixed;" vertex="1" parent="1">
          <mxGeometry x="299" y="-1700" width="20" height="20" as="geometry" />
        </mxCell>
        <mxCell id="Sib9HoKz7f6A6VEoYpiX-1" value="" style="endArrow=classic;html=1;rounded=0;exitX=0.5;exitY=1;exitDx=0;exitDy=0;entryX=0.5;entryY=0;entryDx=0;entryDy=0;" edge="1" parent="1" source="mhb0FvA2ONU_gtsZ9ifl-1" target="35tl24v3VU_jj-kP0Xv5-12">
          <mxGeometry width="50" height="50" relative="1" as="geometry">
            <mxPoint x="410" y="-1900" as="sourcePoint" />
            <mxPoint x="460" y="-1950" as="targetPoint" />
          </mxGeometry>
        </mxCell>
        <mxCell id="Sib9HoKz7f6A6VEoYpiX-2" value="" style="endArrow=classic;html=1;rounded=0;exitX=0.5;exitY=1;exitDx=0;exitDy=0;" edge="1" parent="1" source="mhb0FvA2ONU_gtsZ9ifl-11" target="35tl24v3VU_jj-kP0Xv5-13">
          <mxGeometry width="50" height="50" relative="1" as="geometry">
            <mxPoint x="199" y="-2150" as="sourcePoint" />
            <mxPoint x="199" y="-2100" as="targetPoint" />
          </mxGeometry>
        </mxCell>
        <mxCell id="Sib9HoKz7f6A6VEoYpiX-3" value="" style="endArrow=classic;html=1;rounded=0;exitX=0.5;exitY=1;exitDx=0;exitDy=0;entryX=0.5;entryY=0;entryDx=0;entryDy=0;" edge="1" parent="1" source="mhb0FvA2ONU_gtsZ9ifl-7" target="35tl24v3VU_jj-kP0Xv5-16">
          <mxGeometry width="50" height="50" relative="1" as="geometry">
            <mxPoint x="209" y="-2140" as="sourcePoint" />
            <mxPoint x="209" y="-2090" as="targetPoint" />
          </mxGeometry>
        </mxCell>
        <mxCell id="Sib9HoKz7f6A6VEoYpiX-4" value="" style="endArrow=classic;html=1;rounded=0;exitX=0.5;exitY=1;exitDx=0;exitDy=0;entryX=0;entryY=0;entryDx=0;entryDy=0;" edge="1" parent="1" source="mhb0FvA2ONU_gtsZ9ifl-6" target="35tl24v3VU_jj-kP0Xv5-2">
          <mxGeometry width="50" height="50" relative="1" as="geometry">
            <mxPoint x="219" y="-2130" as="sourcePoint" />
            <mxPoint x="219" y="-2080" as="targetPoint" />
          </mxGeometry>
        </mxCell>
        <mxCell id="Sib9HoKz7f6A6VEoYpiX-5" value="" style="endArrow=classic;html=1;rounded=0;exitX=0.425;exitY=1.013;exitDx=0;exitDy=0;entryX=0;entryY=0;entryDx=0;entryDy=0;exitPerimeter=0;" edge="1" parent="1" source="mhb0FvA2ONU_gtsZ9ifl-5" target="35tl24v3VU_jj-kP0Xv5-19">
          <mxGeometry width="50" height="50" relative="1" as="geometry">
            <mxPoint x="229" y="-2120" as="sourcePoint" />
            <mxPoint x="229" y="-2070" as="targetPoint" />
          </mxGeometry>
        </mxCell>
        <mxCell id="Sib9HoKz7f6A6VEoYpiX-6" value="" style="endArrow=classic;html=1;rounded=0;exitX=0.5;exitY=1;exitDx=0;exitDy=0;entryX=0.5;entryY=0;entryDx=0;entryDy=0;" edge="1" parent="1" source="mhb0FvA2ONU_gtsZ9ifl-3" target="35tl24v3VU_jj-kP0Xv5-17">
          <mxGeometry width="50" height="50" relative="1" as="geometry">
            <mxPoint x="239" y="-2110" as="sourcePoint" />
            <mxPoint x="239" y="-2060" as="targetPoint" />
          </mxGeometry>
        </mxCell>
        <mxCell id="Sib9HoKz7f6A6VEoYpiX-7" value="" style="endArrow=classic;html=1;rounded=0;exitX=0.5;exitY=1;exitDx=0;exitDy=0;entryX=0.5;entryY=0;entryDx=0;entryDy=0;" edge="1" parent="1" source="mhb0FvA2ONU_gtsZ9ifl-12" target="35tl24v3VU_jj-kP0Xv5-20">
          <mxGeometry width="50" height="50" relative="1" as="geometry">
            <mxPoint x="199" y="-1743" as="sourcePoint" />
            <mxPoint x="199" y="-1690" as="targetPoint" />
          </mxGeometry>
        </mxCell>
        <mxCell id="Sib9HoKz7f6A6VEoYpiX-8" value="" style="endArrow=classic;html=1;rounded=0;exitX=0.5;exitY=1;exitDx=0;exitDy=0;entryX=0.5;entryY=0;entryDx=0;entryDy=0;" edge="1" parent="1" source="mhb0FvA2ONU_gtsZ9ifl-13" target="35tl24v3VU_jj-kP0Xv5-14">
          <mxGeometry width="50" height="50" relative="1" as="geometry">
            <mxPoint x="209" y="-1733" as="sourcePoint" />
            <mxPoint x="209" y="-1680" as="targetPoint" />
          </mxGeometry>
        </mxCell>
        <mxCell id="Sib9HoKz7f6A6VEoYpiX-9" value="" style="endArrow=classic;html=1;rounded=0;exitX=0.5;exitY=1;exitDx=0;exitDy=0;entryX=0.5;entryY=0;entryDx=0;entryDy=0;" edge="1" parent="1" source="mhb0FvA2ONU_gtsZ9ifl-14" target="35tl24v3VU_jj-kP0Xv5-15">
          <mxGeometry width="50" height="50" relative="1" as="geometry">
            <mxPoint x="219" y="-1723" as="sourcePoint" />
            <mxPoint x="219" y="-1670" as="targetPoint" />
          </mxGeometry>
        </mxCell>
        <mxCell id="Sib9HoKz7f6A6VEoYpiX-10" value="" style="endArrow=classic;html=1;rounded=0;exitX=0.5;exitY=1;exitDx=0;exitDy=0;entryX=0.5;entryY=0;entryDx=0;entryDy=0;" edge="1" parent="1" source="mhb0FvA2ONU_gtsZ9ifl-15" target="35tl24v3VU_jj-kP0Xv5-18">
          <mxGeometry width="50" height="50" relative="1" as="geometry">
            <mxPoint x="229" y="-1713" as="sourcePoint" />
            <mxPoint x="229" y="-1660" as="targetPoint" />
          </mxGeometry>
        </mxCell>
      </root>
    </mxGraphModel>
  </diagram>
  <diagram id="HJsuG1XGLeJLwtmqjYu7" name="Reccomend_movie">
    <mxGraphModel grid="1" page="1" gridSize="10" guides="1" tooltips="1" connect="1" arrows="1" fold="1" pageScale="1" pageWidth="827" pageHeight="1169" math="0" shadow="0">
      <root>
        <mxCell id="0" />
        <mxCell id="1" parent="0" />
        <mxCell id="r-v17q5RK5eV7gaBd2MV-1" value="&lt;div style=&quot;background-color: rgb(255, 255, 254); font-weight: normal; line-height: 18px;&quot;&gt;&lt;div style=&quot;&quot;&gt;&lt;div style=&quot;line-height: 18px;&quot;&gt;The Green Mile&lt;/div&gt;&lt;/div&gt;&lt;/div&gt;" style="ellipse;whiteSpace=wrap;html=1;fontFamily=Times New Roman;fontColor=#000000;" vertex="1" parent="1">
          <mxGeometry x="60" y="50" width="120" height="80" as="geometry" />
        </mxCell>
        <mxCell id="r-v17q5RK5eV7gaBd2MV-2" value="1" style="ellipse;whiteSpace=wrap;html=1;fontFamily=Times New Roman;fontColor=#000000;" vertex="1" parent="1">
          <mxGeometry x="105" y="50" width="30" height="20" as="geometry" />
        </mxCell>
        <mxCell id="r-v17q5RK5eV7gaBd2MV-3" value="&lt;div style=&quot;background-color: rgb(255, 255, 254); line-height: 18px;&quot;&gt;Interstellar&lt;/div&gt;" style="ellipse;whiteSpace=wrap;html=1;fontFamily=Times New Roman;fontColor=#000000;" vertex="1" parent="1">
          <mxGeometry x="190" y="50" width="120" height="80" as="geometry" />
        </mxCell>
        <mxCell id="r-v17q5RK5eV7gaBd2MV-4" value="2" style="ellipse;whiteSpace=wrap;html=1;fontFamily=Times New Roman;fontColor=#000000;" vertex="1" parent="1">
          <mxGeometry x="235" y="50" width="30" height="20" as="geometry" />
        </mxCell>
        <mxCell id="r-v17q5RK5eV7gaBd2MV-5" value="&lt;meta charset=&quot;utf-8&quot;&gt;&lt;div style=&quot;background-color: rgb(255, 255, 254); font-weight: normal; font-size: 12px; line-height: 18px;&quot;&gt;&lt;div&gt;&lt;span style=&quot;&quot;&gt;A Beautiful Mind&lt;/span&gt;&lt;/div&gt;&lt;/div&gt;" style="ellipse;whiteSpace=wrap;html=1;fontFamily=Times New Roman;fontColor=#000000;" vertex="1" parent="1">
          <mxGeometry x="460" y="370" width="120" height="80" as="geometry" />
        </mxCell>
        <mxCell id="r-v17q5RK5eV7gaBd2MV-6" value="9" style="ellipse;whiteSpace=wrap;html=1;fontFamily=Times New Roman;fontColor=#000000;" vertex="1" parent="1">
          <mxGeometry x="505" y="370" width="30" height="20" as="geometry" />
        </mxCell>
        <mxCell id="r-v17q5RK5eV7gaBd2MV-7" value="&lt;meta charset=&quot;utf-8&quot;&gt;&lt;div style=&quot;background-color: rgb(255, 255, 254); font-weight: normal; font-size: 12px; line-height: 18px;&quot;&gt;&lt;div&gt;&lt;span style=&quot;&quot;&gt;Star Wars: Episode V &lt;/span&gt;&lt;/div&gt;&lt;/div&gt;" style="ellipse;whiteSpace=wrap;html=1;fontFamily=Times New Roman;fontColor=#000000;" vertex="1" parent="1">
          <mxGeometry x="320" y="370" width="120" height="80" as="geometry" />
        </mxCell>
        <mxCell id="r-v17q5RK5eV7gaBd2MV-8" value="8" style="ellipse;whiteSpace=wrap;html=1;fontFamily=Times New Roman;fontColor=#000000;" vertex="1" parent="1">
          <mxGeometry x="365" y="370" width="30" height="20" as="geometry" />
        </mxCell>
        <mxCell id="r-v17q5RK5eV7gaBd2MV-9" value="&lt;meta charset=&quot;utf-8&quot;&gt;&lt;div style=&quot;background-color: rgb(255, 255, 254); font-weight: normal; font-size: 12px; line-height: 18px;&quot;&gt;&lt;div&gt;&lt;span style=&quot;&quot;&gt;Braveheart&lt;/span&gt;&lt;/div&gt;&lt;/div&gt;" style="ellipse;whiteSpace=wrap;html=1;fontFamily=Times New Roman;fontColor=#000000;" vertex="1" parent="1">
          <mxGeometry x="190" y="370" width="120" height="80" as="geometry" />
        </mxCell>
        <mxCell id="r-v17q5RK5eV7gaBd2MV-10" value="7" style="ellipse;whiteSpace=wrap;html=1;fontFamily=Times New Roman;fontColor=#000000;" vertex="1" parent="1">
          <mxGeometry x="235" y="370" width="30" height="20" as="geometry" />
        </mxCell>
        <mxCell id="r-v17q5RK5eV7gaBd2MV-11" value="&lt;meta charset=&quot;utf-8&quot;&gt;&lt;div style=&quot;background-color: rgb(255, 255, 254); font-weight: normal; font-size: 12px; line-height: 18px;&quot;&gt;&lt;div&gt;&lt;span style=&quot;&quot;&gt;A Clockwork Orange&lt;/span&gt;&lt;/div&gt;&lt;/div&gt;" style="ellipse;whiteSpace=wrap;html=1;fontFamily=Times New Roman;fontColor=#000000;" vertex="1" parent="1">
          <mxGeometry x="60" y="370" width="120" height="80" as="geometry" />
        </mxCell>
        <mxCell id="r-v17q5RK5eV7gaBd2MV-12" value="6" style="ellipse;whiteSpace=wrap;html=1;fontFamily=Times New Roman;fontColor=#000000;" vertex="1" parent="1">
          <mxGeometry x="105" y="370" width="30" height="20" as="geometry" />
        </mxCell>
        <mxCell id="r-v17q5RK5eV7gaBd2MV-13" value="&lt;meta charset=&quot;utf-8&quot;&gt;&lt;div style=&quot;background-color: rgb(255, 255, 254); font-weight: normal; font-size: 12px; line-height: 18px;&quot;&gt;&lt;div&gt;&lt;span style=&quot;&quot;&gt;Fight Club&lt;/span&gt;&lt;/div&gt;&lt;/div&gt;" style="ellipse;whiteSpace=wrap;html=1;fontFamily=Times New Roman;fontColor=#000000;" vertex="1" parent="1">
          <mxGeometry x="590" y="50" width="120" height="80" as="geometry" />
        </mxCell>
        <mxCell id="r-v17q5RK5eV7gaBd2MV-14" value="5" style="ellipse;whiteSpace=wrap;html=1;fontFamily=Times New Roman;fontColor=#000000;" vertex="1" parent="1">
          <mxGeometry x="635" y="50" width="30" height="20" as="geometry" />
        </mxCell>
        <mxCell id="r-v17q5RK5eV7gaBd2MV-15" value="&lt;div style=&quot;background-color: rgb(255, 255, 254); line-height: 18px;&quot;&gt;The Matrix&lt;/div&gt;" style="ellipse;whiteSpace=wrap;html=1;fontFamily=Times New Roman;fontColor=#000000;" vertex="1" parent="1">
          <mxGeometry x="460" y="50" width="120" height="80" as="geometry" />
        </mxCell>
        <mxCell id="r-v17q5RK5eV7gaBd2MV-16" value="4" style="ellipse;whiteSpace=wrap;html=1;fontFamily=Times New Roman;fontColor=#000000;" vertex="1" parent="1">
          <mxGeometry x="505" y="50" width="30" height="20" as="geometry" />
        </mxCell>
        <mxCell id="r-v17q5RK5eV7gaBd2MV-17" value="&lt;div style=&quot;background-color: rgb(255, 255, 254); line-height: 18px;&quot;&gt;The Lord of&lt;/div&gt;" style="ellipse;whiteSpace=wrap;html=1;fontFamily=Times New Roman;fontColor=#000000;" vertex="1" parent="1">
          <mxGeometry x="320" y="50" width="120" height="80" as="geometry" />
        </mxCell>
        <mxCell id="r-v17q5RK5eV7gaBd2MV-18" value="3" style="ellipse;whiteSpace=wrap;html=1;fontFamily=Times New Roman;fontColor=#000000;" vertex="1" parent="1">
          <mxGeometry x="365" y="50" width="30" height="20" as="geometry" />
        </mxCell>
        <mxCell id="r-v17q5RK5eV7gaBd2MV-19" value="&lt;meta charset=&quot;utf-8&quot;&gt;&lt;div style=&quot;background-color: rgb(255, 255, 254); font-weight: normal; font-size: 12px; line-height: 18px;&quot;&gt;&lt;div&gt;&lt;span style=&quot;&quot;&gt;Titanic&lt;/span&gt;&lt;/div&gt;&lt;/div&gt;" style="ellipse;whiteSpace=wrap;html=1;fontFamily=Times New Roman;fontColor=#000000;" vertex="1" parent="1">
          <mxGeometry x="600" y="370" width="120" height="80" as="geometry" />
        </mxCell>
        <mxCell id="r-v17q5RK5eV7gaBd2MV-20" value="10" style="ellipse;whiteSpace=wrap;html=1;fontFamily=Times New Roman;fontColor=#000000;" vertex="1" parent="1">
          <mxGeometry x="645" y="370" width="30" height="20" as="geometry" />
        </mxCell>
        <mxCell id="YwsUve6bjur-taUbw-Z5-1" value="&lt;div style=&quot;color: rgb(33, 33, 33); background-color: rgb(255, 255, 254); font-family: Menlo, Monaco, &amp;quot;Courier New&amp;quot;, monospace; line-height: 18px;&quot;&gt;Ivan&lt;/div&gt;" style="ellipse;whiteSpace=wrap;html=1;aspect=fixed;" vertex="1" parent="1">
          <mxGeometry x="480" y="180" width="80" height="80" as="geometry" />
        </mxCell>
        <mxCell id="YwsUve6bjur-taUbw-Z5-2" value="&lt;b&gt;1&lt;/b&gt;" style="ellipse;whiteSpace=wrap;html=1;aspect=fixed;" vertex="1" parent="1">
          <mxGeometry x="510" y="180" width="20" height="20" as="geometry" />
        </mxCell>
        <mxCell id="YwsUve6bjur-taUbw-Z5-3" value="&lt;div style=&quot;color: rgb(33, 33, 33); background-color: rgb(255, 255, 254); font-family: Menlo, Monaco, &amp;quot;Courier New&amp;quot;, monospace; line-height: 18px;&quot;&gt;Alexey&lt;/div&gt;" style="ellipse;whiteSpace=wrap;html=1;aspect=fixed;" vertex="1" parent="1">
          <mxGeometry x="480" y="490" width="80" height="80" as="geometry" />
        </mxCell>
        <mxCell id="YwsUve6bjur-taUbw-Z5-4" value="&lt;div style=&quot;color: rgb(33, 33, 33); background-color: rgb(255, 255, 254); font-family: Menlo, Monaco, &amp;quot;Courier New&amp;quot;, monospace; line-height: 18px;&quot;&gt;Elena&lt;/div&gt;" style="ellipse;whiteSpace=wrap;html=1;aspect=fixed;" vertex="1" parent="1">
          <mxGeometry x="210" y="180" width="80" height="80" as="geometry" />
        </mxCell>
        <mxCell id="YwsUve6bjur-taUbw-Z5-5" value="&lt;div style=&quot;color: rgb(33, 33, 33); background-color: rgb(255, 255, 254); font-family: Menlo, Monaco, &amp;quot;Courier New&amp;quot;, monospace; line-height: 18px;&quot;&gt;Maria&lt;/div&gt;" style="ellipse;whiteSpace=wrap;html=1;aspect=fixed;" vertex="1" parent="1">
          <mxGeometry x="210" y="505" width="80" height="80" as="geometry" />
        </mxCell>
        <mxCell id="YwsUve6bjur-taUbw-Z5-6" value="Dmitry" style="ellipse;whiteSpace=wrap;html=1;aspect=fixed;" vertex="1" parent="1">
          <mxGeometry x="80" y="180" width="80" height="80" as="geometry" />
        </mxCell>
        <mxCell id="YwsUve6bjur-taUbw-Z5-7" value="&lt;div style=&quot;color: rgb(33, 33, 33); background-color: rgb(255, 255, 254); font-family: Menlo, Monaco, &amp;quot;Courier New&amp;quot;, monospace; line-height: 18px;&quot;&gt;Anna&lt;br&gt;&lt;/div&gt;" style="ellipse;whiteSpace=wrap;html=1;aspect=fixed;" vertex="1" parent="1">
          <mxGeometry x="620" y="490" width="80" height="80" as="geometry" />
        </mxCell>
        <mxCell id="YwsUve6bjur-taUbw-Z5-8" value="&lt;div style=&quot;color: rgb(33, 33, 33); background-color: rgb(255, 255, 254); font-family: Menlo, Monaco, &amp;quot;Courier New&amp;quot;, monospace; line-height: 18px;&quot;&gt;Alexandra&lt;br&gt;&lt;/div&gt;" style="ellipse;whiteSpace=wrap;html=1;aspect=fixed;" vertex="1" parent="1">
          <mxGeometry x="610" y="180" width="80" height="80" as="geometry" />
        </mxCell>
        <mxCell id="YwsUve6bjur-taUbw-Z5-9" value="&lt;div style=&quot;color: rgb(33, 33, 33); background-color: rgb(255, 255, 254); font-family: Menlo, Monaco, &amp;quot;Courier New&amp;quot;, monospace; line-height: 18px;&quot;&gt;Peter&lt;br&gt;&lt;/div&gt;" style="ellipse;whiteSpace=wrap;html=1;aspect=fixed;" vertex="1" parent="1">
          <mxGeometry x="80" y="505" width="80" height="80" as="geometry" />
        </mxCell>
        <mxCell id="YwsUve6bjur-taUbw-Z5-10" value="&lt;div style=&quot;color: rgb(33, 33, 33); background-color: rgb(255, 255, 254); font-family: Menlo, Monaco, &amp;quot;Courier New&amp;quot;, monospace; line-height: 18px;&quot;&gt;&lt;div style=&quot;line-height: 18px;&quot;&gt;Natalia&lt;/div&gt;&lt;/div&gt;" style="ellipse;whiteSpace=wrap;html=1;aspect=fixed;" vertex="1" parent="1">
          <mxGeometry x="340" y="180" width="80" height="80" as="geometry" />
        </mxCell>
        <mxCell id="YwsUve6bjur-taUbw-Z5-11" value="&lt;div style=&quot;color: rgb(33, 33, 33); background-color: rgb(255, 255, 254); font-family: Menlo, Monaco, &amp;quot;Courier New&amp;quot;, monospace; line-height: 18px;&quot;&gt;Andrew&lt;/div&gt;" style="ellipse;whiteSpace=wrap;html=1;aspect=fixed;" vertex="1" parent="1">
          <mxGeometry x="340" y="500" width="80" height="80" as="geometry" />
        </mxCell>
        <mxCell id="YwsUve6bjur-taUbw-Z5-12" value="&lt;b&gt;2&lt;/b&gt;" style="ellipse;whiteSpace=wrap;html=1;aspect=fixed;" vertex="1" parent="1">
          <mxGeometry x="510" y="490" width="20" height="20" as="geometry" />
        </mxCell>
        <mxCell id="YwsUve6bjur-taUbw-Z5-13" value="&lt;b&gt;3&lt;/b&gt;" style="ellipse;whiteSpace=wrap;html=1;aspect=fixed;" vertex="1" parent="1">
          <mxGeometry x="240" y="180" width="20" height="20" as="geometry" />
        </mxCell>
        <mxCell id="YwsUve6bjur-taUbw-Z5-14" value="&lt;b&gt;4&lt;/b&gt;" style="ellipse;whiteSpace=wrap;html=1;aspect=fixed;" vertex="1" parent="1">
          <mxGeometry x="240" y="505" width="20" height="20" as="geometry" />
        </mxCell>
        <mxCell id="YwsUve6bjur-taUbw-Z5-15" value="&lt;b&gt;5&lt;/b&gt;" style="ellipse;whiteSpace=wrap;html=1;aspect=fixed;" vertex="1" parent="1">
          <mxGeometry x="110" y="180" width="20" height="20" as="geometry" />
        </mxCell>
        <mxCell id="YwsUve6bjur-taUbw-Z5-16" value="&lt;b&gt;6&lt;/b&gt;" style="ellipse;whiteSpace=wrap;html=1;aspect=fixed;" vertex="1" parent="1">
          <mxGeometry x="650" y="490" width="20" height="20" as="geometry" />
        </mxCell>
        <mxCell id="YwsUve6bjur-taUbw-Z5-17" value="&lt;b&gt;7&lt;/b&gt;" style="ellipse;whiteSpace=wrap;html=1;aspect=fixed;" vertex="1" parent="1">
          <mxGeometry x="640" y="180" width="20" height="20" as="geometry" />
        </mxCell>
        <mxCell id="YwsUve6bjur-taUbw-Z5-18" value="&lt;b&gt;8&lt;/b&gt;" style="ellipse;whiteSpace=wrap;html=1;aspect=fixed;" vertex="1" parent="1">
          <mxGeometry x="110" y="505" width="20" height="20" as="geometry" />
        </mxCell>
        <mxCell id="YwsUve6bjur-taUbw-Z5-19" value="&lt;b&gt;9&lt;/b&gt;" style="ellipse;whiteSpace=wrap;html=1;aspect=fixed;" vertex="1" parent="1">
          <mxGeometry x="370" y="180" width="20" height="20" as="geometry" />
        </mxCell>
        <mxCell id="YwsUve6bjur-taUbw-Z5-20" value="&lt;b&gt;10&lt;/b&gt;" style="ellipse;whiteSpace=wrap;html=1;aspect=fixed;" vertex="1" parent="1">
          <mxGeometry x="370" y="500" width="20" height="20" as="geometry" />
        </mxCell>
        <mxCell id="vCNwYFGTh47CGa0Rx49u-1" value="" style="endArrow=classic;html=1;rounded=0;exitX=0.5;exitY=1;exitDx=0;exitDy=0;entryX=0.5;entryY=0;entryDx=0;entryDy=0;" edge="1" parent="1" source="r-v17q5RK5eV7gaBd2MV-1" target="YwsUve6bjur-taUbw-Z5-6">
          <mxGeometry width="50" height="50" relative="1" as="geometry">
            <mxPoint x="420" y="390" as="sourcePoint" />
            <mxPoint x="470" y="340" as="targetPoint" />
          </mxGeometry>
        </mxCell>
        <mxCell id="vCNwYFGTh47CGa0Rx49u-2" value="" style="endArrow=classic;html=1;rounded=0;exitX=0.5;exitY=1;exitDx=0;exitDy=0;" edge="1" parent="1" source="r-v17q5RK5eV7gaBd2MV-3" target="YwsUve6bjur-taUbw-Z5-13">
          <mxGeometry width="50" height="50" relative="1" as="geometry">
            <mxPoint x="130" y="140" as="sourcePoint" />
            <mxPoint x="130" y="190" as="targetPoint" />
          </mxGeometry>
        </mxCell>
        <mxCell id="vCNwYFGTh47CGa0Rx49u-3" value="" style="endArrow=classic;html=1;rounded=0;exitX=0.5;exitY=1;exitDx=0;exitDy=0;entryX=0.5;entryY=0;entryDx=0;entryDy=0;" edge="1" parent="1" source="r-v17q5RK5eV7gaBd2MV-17" target="YwsUve6bjur-taUbw-Z5-19">
          <mxGeometry width="50" height="50" relative="1" as="geometry">
            <mxPoint x="140" y="150" as="sourcePoint" />
            <mxPoint x="140" y="200" as="targetPoint" />
          </mxGeometry>
        </mxCell>
        <mxCell id="vCNwYFGTh47CGa0Rx49u-4" value="" style="endArrow=classic;html=1;rounded=0;exitX=0.5;exitY=1;exitDx=0;exitDy=0;" edge="1" parent="1" source="r-v17q5RK5eV7gaBd2MV-15">
          <mxGeometry width="50" height="50" relative="1" as="geometry">
            <mxPoint x="150" y="160" as="sourcePoint" />
            <mxPoint x="520" y="180" as="targetPoint" />
          </mxGeometry>
        </mxCell>
        <mxCell id="vCNwYFGTh47CGa0Rx49u-5" value="" style="endArrow=classic;html=1;rounded=0;exitX=0.5;exitY=1;exitDx=0;exitDy=0;" edge="1" parent="1" source="r-v17q5RK5eV7gaBd2MV-13" target="YwsUve6bjur-taUbw-Z5-17">
          <mxGeometry width="50" height="50" relative="1" as="geometry">
            <mxPoint x="160" y="170" as="sourcePoint" />
            <mxPoint x="160" y="220" as="targetPoint" />
          </mxGeometry>
        </mxCell>
        <mxCell id="vCNwYFGTh47CGa0Rx49u-6" value="" style="endArrow=classic;html=1;rounded=0;exitX=0.45;exitY=1.013;exitDx=0;exitDy=0;exitPerimeter=0;entryX=0.5;entryY=0;entryDx=0;entryDy=0;" edge="1" parent="1" source="r-v17q5RK5eV7gaBd2MV-11" target="YwsUve6bjur-taUbw-Z5-18">
          <mxGeometry width="50" height="50" relative="1" as="geometry">
            <mxPoint x="660" y="140" as="sourcePoint" />
            <mxPoint x="660" y="190" as="targetPoint" />
          </mxGeometry>
        </mxCell>
        <mxCell id="vCNwYFGTh47CGa0Rx49u-7" value="" style="endArrow=classic;html=1;rounded=0;exitX=0.5;exitY=1;exitDx=0;exitDy=0;" edge="1" parent="1" source="r-v17q5RK5eV7gaBd2MV-9">
          <mxGeometry width="50" height="50" relative="1" as="geometry">
            <mxPoint x="249.5" y="455" as="sourcePoint" />
            <mxPoint x="249.5" y="505" as="targetPoint" />
          </mxGeometry>
        </mxCell>
        <mxCell id="vCNwYFGTh47CGa0Rx49u-8" value="" style="endArrow=classic;html=1;rounded=0;exitX=0.5;exitY=1;exitDx=0;exitDy=0;" edge="1" parent="1" source="r-v17q5RK5eV7gaBd2MV-7">
          <mxGeometry width="50" height="50" relative="1" as="geometry">
            <mxPoint x="379.5" y="460" as="sourcePoint" />
            <mxPoint x="380" y="500" as="targetPoint" />
          </mxGeometry>
        </mxCell>
        <mxCell id="vCNwYFGTh47CGa0Rx49u-9" value="" style="endArrow=classic;html=1;rounded=0;exitX=0.5;exitY=1;exitDx=0;exitDy=0;" edge="1" parent="1" source="r-v17q5RK5eV7gaBd2MV-5" target="YwsUve6bjur-taUbw-Z5-12">
          <mxGeometry width="50" height="50" relative="1" as="geometry">
            <mxPoint x="690" y="170" as="sourcePoint" />
            <mxPoint x="690" y="220" as="targetPoint" />
          </mxGeometry>
        </mxCell>
        <mxCell id="vCNwYFGTh47CGa0Rx49u-10" value="" style="endArrow=classic;html=1;rounded=0;exitX=0.5;exitY=1;exitDx=0;exitDy=0;entryX=0.5;entryY=0;entryDx=0;entryDy=0;" edge="1" parent="1" source="r-v17q5RK5eV7gaBd2MV-19" target="YwsUve6bjur-taUbw-Z5-16">
          <mxGeometry width="50" height="50" relative="1" as="geometry">
            <mxPoint x="700" y="180" as="sourcePoint" />
            <mxPoint x="700" y="230" as="targetPoint" />
          </mxGeometry>
        </mxCell>
      </root>
    </mxGraphModel>
  </diagram>
  <diagram id="DqdRJRZ0nKLbv0zl3eDc" name="Recommend_book">
    <mxGraphModel grid="1" page="1" gridSize="10" guides="1" tooltips="1" connect="1" arrows="1" fold="1" pageScale="1" pageWidth="827" pageHeight="1169" math="0" shadow="0">
      <root>
        <mxCell id="0" />
        <mxCell id="1" parent="0" />
        <mxCell id="fEkHNfi3PRAmqrXVhBV--1" value="" style="verticalLabelPosition=bottom;verticalAlign=top;html=1;shape=hexagon;perimeter=hexagonPerimeter2;arcSize=6;size=0.27;fontSize=12;fontFamily=Times New Roman;" vertex="1" parent="1">
          <mxGeometry x="40" y="40" width="130" height="80" as="geometry" />
        </mxCell>
        <mxCell id="fEkHNfi3PRAmqrXVhBV--2" value="" style="verticalLabelPosition=bottom;verticalAlign=top;html=1;shape=hexagon;perimeter=hexagonPerimeter2;arcSize=6;size=0.27;fontSize=12;fontFamily=Times New Roman;" vertex="1" parent="1">
          <mxGeometry x="87.5" y="40" width="35" height="20" as="geometry" />
        </mxCell>
        <mxCell id="fEkHNfi3PRAmqrXVhBV--3" value="1" style="text;html=1;strokeColor=none;fillColor=none;align=center;verticalAlign=middle;whiteSpace=wrap;rounded=0;fontSize=12;fontFamily=Times New Roman;" vertex="1" parent="1">
          <mxGeometry x="90" y="40" width="30" height="20" as="geometry" />
        </mxCell>
        <mxCell id="fEkHNfi3PRAmqrXVhBV--4" value="&lt;div style=&quot;color: rgb(33, 33, 33); background-color: rgb(255, 255, 254); font-size: 12px; line-height: 18px;&quot;&gt;&lt;font style=&quot;font-size: 12px;&quot;&gt;War and Peace&lt;/font&gt;&lt;/div&gt;" style="text;html=1;strokeColor=none;fillColor=none;align=center;verticalAlign=middle;whiteSpace=wrap;rounded=0;fontSize=12;fontFamily=Times New Roman;" vertex="1" parent="1">
          <mxGeometry x="60" y="60" width="90" height="50" as="geometry" />
        </mxCell>
        <mxCell id="fEkHNfi3PRAmqrXVhBV--5" value="" style="verticalLabelPosition=bottom;verticalAlign=top;html=1;shape=hexagon;perimeter=hexagonPerimeter2;arcSize=6;size=0.27;fontSize=12;fontFamily=Times New Roman;" vertex="1" parent="1">
          <mxGeometry x="190" y="40" width="130" height="80" as="geometry" />
        </mxCell>
        <mxCell id="fEkHNfi3PRAmqrXVhBV--6" value="" style="verticalLabelPosition=bottom;verticalAlign=top;html=1;shape=hexagon;perimeter=hexagonPerimeter2;arcSize=6;size=0.27;fontSize=12;fontFamily=Times New Roman;" vertex="1" parent="1">
          <mxGeometry x="237.5" y="40" width="35" height="20" as="geometry" />
        </mxCell>
        <mxCell id="fEkHNfi3PRAmqrXVhBV--7" value="2" style="text;html=1;strokeColor=none;fillColor=none;align=center;verticalAlign=middle;whiteSpace=wrap;rounded=0;fontSize=12;fontFamily=Times New Roman;" vertex="1" parent="1">
          <mxGeometry x="240" y="40" width="30" height="20" as="geometry" />
        </mxCell>
        <mxCell id="fEkHNfi3PRAmqrXVhBV--8" value="&lt;div style=&quot;color: rgb(33, 33, 33); background-color: rgb(255, 255, 254); font-size: 12px; line-height: 18px;&quot;&gt;Crime and Punishment&lt;/div&gt;" style="text;html=1;strokeColor=none;fillColor=none;align=center;verticalAlign=middle;whiteSpace=wrap;rounded=0;fontSize=12;fontFamily=Times New Roman;" vertex="1" parent="1">
          <mxGeometry x="210" y="60" width="90" height="50" as="geometry" />
        </mxCell>
        <mxCell id="fEkHNfi3PRAmqrXVhBV--9" value="" style="verticalLabelPosition=bottom;verticalAlign=top;html=1;shape=hexagon;perimeter=hexagonPerimeter2;arcSize=6;size=0.27;fontSize=12;fontFamily=Times New Roman;" vertex="1" parent="1">
          <mxGeometry x="330" y="40" width="150" height="80" as="geometry" />
        </mxCell>
        <mxCell id="fEkHNfi3PRAmqrXVhBV--10" value="" style="verticalLabelPosition=bottom;verticalAlign=top;html=1;shape=hexagon;perimeter=hexagonPerimeter2;arcSize=6;size=0.27;fontSize=12;fontFamily=Times New Roman;" vertex="1" parent="1">
          <mxGeometry x="387.5" y="40" width="35" height="20" as="geometry" />
        </mxCell>
        <mxCell id="fEkHNfi3PRAmqrXVhBV--11" value="3" style="text;html=1;strokeColor=none;fillColor=none;align=center;verticalAlign=middle;whiteSpace=wrap;rounded=0;fontSize=12;fontFamily=Times New Roman;" vertex="1" parent="1">
          <mxGeometry x="390" y="40" width="30" height="20" as="geometry" />
        </mxCell>
        <mxCell id="fEkHNfi3PRAmqrXVhBV--12" value="&lt;div style=&quot;color: rgb(33, 33, 33); background-color: rgb(255, 255, 254); line-height: 18px; font-size: 12px;&quot;&gt;&lt;font style=&quot;font-size: 12px;&quot;&gt;Harry Potter and the Philosopher&lt;/font&gt;&lt;/div&gt;" style="text;html=1;strokeColor=none;fillColor=none;align=center;verticalAlign=middle;whiteSpace=wrap;rounded=0;fontSize=12;fontFamily=Times New Roman;" vertex="1" parent="1">
          <mxGeometry x="350" y="55" width="110" height="50" as="geometry" />
        </mxCell>
        <mxCell id="fEkHNfi3PRAmqrXVhBV--13" value="" style="verticalLabelPosition=bottom;verticalAlign=top;html=1;shape=hexagon;perimeter=hexagonPerimeter2;arcSize=6;size=0.27;fontSize=12;fontFamily=Times New Roman;" vertex="1" parent="1">
          <mxGeometry x="490" y="40" width="130" height="80" as="geometry" />
        </mxCell>
        <mxCell id="fEkHNfi3PRAmqrXVhBV--14" value="" style="verticalLabelPosition=bottom;verticalAlign=top;html=1;shape=hexagon;perimeter=hexagonPerimeter2;arcSize=6;size=0.27;fontSize=12;fontFamily=Times New Roman;" vertex="1" parent="1">
          <mxGeometry x="537.5" y="40" width="35" height="20" as="geometry" />
        </mxCell>
        <mxCell id="fEkHNfi3PRAmqrXVhBV--15" value="4" style="text;html=1;strokeColor=none;fillColor=none;align=center;verticalAlign=middle;whiteSpace=wrap;rounded=0;fontSize=12;fontFamily=Times New Roman;" vertex="1" parent="1">
          <mxGeometry x="540" y="40" width="30" height="20" as="geometry" />
        </mxCell>
        <mxCell id="fEkHNfi3PRAmqrXVhBV--16" value="&lt;div style=&quot;color: rgb(33, 33, 33); background-color: rgb(255, 255, 254); font-size: 12px; line-height: 18px;&quot;&gt;1984&lt;/div&gt;" style="text;html=1;strokeColor=none;fillColor=none;align=center;verticalAlign=middle;whiteSpace=wrap;rounded=0;fontSize=12;fontFamily=Times New Roman;" vertex="1" parent="1">
          <mxGeometry x="490" y="60" width="130" height="50" as="geometry" />
        </mxCell>
        <mxCell id="fEkHNfi3PRAmqrXVhBV--17" value="" style="verticalLabelPosition=bottom;verticalAlign=top;html=1;shape=hexagon;perimeter=hexagonPerimeter2;arcSize=6;size=0.27;fontSize=10;" vertex="1" parent="1">
          <mxGeometry x="640" y="40" width="130" height="80" as="geometry" />
        </mxCell>
        <mxCell id="fEkHNfi3PRAmqrXVhBV--18" value="" style="verticalLabelPosition=bottom;verticalAlign=top;html=1;shape=hexagon;perimeter=hexagonPerimeter2;arcSize=6;size=0.27;fontSize=12;fontFamily=Times New Roman;" vertex="1" parent="1">
          <mxGeometry x="687.5" y="40" width="35" height="20" as="geometry" />
        </mxCell>
        <mxCell id="fEkHNfi3PRAmqrXVhBV--19" value="5" style="text;html=1;strokeColor=none;fillColor=none;align=center;verticalAlign=middle;whiteSpace=wrap;rounded=0;fontSize=12;fontFamily=Times New Roman;" vertex="1" parent="1">
          <mxGeometry x="690" y="40" width="30" height="20" as="geometry" />
        </mxCell>
        <mxCell id="fEkHNfi3PRAmqrXVhBV--20" value="&lt;div style=&quot;color: rgb(33, 33, 33); background-color: rgb(255, 255, 254); line-height: 18px; font-size: 12px;&quot;&gt;&lt;font style=&quot;font-size: 12px;&quot;&gt;The Great Gatsby&lt;/font&gt;&lt;/div&gt;" style="text;html=1;strokeColor=none;fillColor=none;align=center;verticalAlign=middle;whiteSpace=wrap;rounded=0;fontSize=12;fontFamily=Times New Roman;" vertex="1" parent="1">
          <mxGeometry x="645" y="60" width="120" height="50" as="geometry" />
        </mxCell>
        <mxCell id="fEkHNfi3PRAmqrXVhBV--21" value="" style="verticalLabelPosition=bottom;verticalAlign=top;html=1;shape=hexagon;perimeter=hexagonPerimeter2;arcSize=6;size=0.27;fontSize=12;fontFamily=Times New Roman;" vertex="1" parent="1">
          <mxGeometry x="35" y="380" width="130" height="80" as="geometry" />
        </mxCell>
        <mxCell id="fEkHNfi3PRAmqrXVhBV--22" value="" style="verticalLabelPosition=bottom;verticalAlign=top;html=1;shape=hexagon;perimeter=hexagonPerimeter2;arcSize=6;size=0.27;fontSize=12;fontFamily=Times New Roman;" vertex="1" parent="1">
          <mxGeometry x="82.5" y="380" width="35" height="20" as="geometry" />
        </mxCell>
        <mxCell id="fEkHNfi3PRAmqrXVhBV--23" value="6" style="text;html=1;strokeColor=none;fillColor=none;align=center;verticalAlign=middle;whiteSpace=wrap;rounded=0;fontSize=12;fontFamily=Times New Roman;" vertex="1" parent="1">
          <mxGeometry x="85" y="380" width="30" height="20" as="geometry" />
        </mxCell>
        <mxCell id="fEkHNfi3PRAmqrXVhBV--24" value="&lt;div style=&quot;color: rgb(33, 33, 33); background-color: rgb(255, 255, 254); line-height: 18px; font-size: 12px;&quot;&gt;&lt;font style=&quot;font-size: 12px;&quot;&gt;Murder on the Orient Express&lt;/font&gt;&lt;/div&gt;" style="text;html=1;strokeColor=none;fillColor=none;align=center;verticalAlign=middle;whiteSpace=wrap;rounded=0;fontSize=12;fontFamily=Times New Roman;" vertex="1" parent="1">
          <mxGeometry x="55" y="400" width="90" height="50" as="geometry" />
        </mxCell>
        <mxCell id="fEkHNfi3PRAmqrXVhBV--25" value="" style="verticalLabelPosition=bottom;verticalAlign=top;html=1;shape=hexagon;perimeter=hexagonPerimeter2;arcSize=6;size=0.27;fontSize=12;fontFamily=Times New Roman;" vertex="1" parent="1">
          <mxGeometry x="175" y="380" width="150" height="80" as="geometry" />
        </mxCell>
        <mxCell id="fEkHNfi3PRAmqrXVhBV--26" value="" style="verticalLabelPosition=bottom;verticalAlign=top;html=1;shape=hexagon;perimeter=hexagonPerimeter2;arcSize=6;size=0.27;fontSize=12;fontFamily=Times New Roman;" vertex="1" parent="1">
          <mxGeometry x="232.5" y="380" width="35" height="20" as="geometry" />
        </mxCell>
        <mxCell id="fEkHNfi3PRAmqrXVhBV--27" value="7" style="text;html=1;strokeColor=none;fillColor=none;align=center;verticalAlign=middle;whiteSpace=wrap;rounded=0;fontSize=12;fontFamily=Times New Roman;" vertex="1" parent="1">
          <mxGeometry x="235" y="380" width="30" height="20" as="geometry" />
        </mxCell>
        <mxCell id="fEkHNfi3PRAmqrXVhBV--28" value="&lt;div style=&quot;color: rgb(33, 33, 33); line-height: 18px; font-size: 12px;&quot;&gt;&lt;font style=&quot;font-size: 12px;&quot;&gt;Harry Potter and the Prisoner of Azkaban&lt;/font&gt;&lt;/div&gt;" style="text;html=1;strokeColor=none;fillColor=none;align=center;verticalAlign=middle;whiteSpace=wrap;rounded=0;fontSize=12;fontFamily=Times New Roman;" vertex="1" parent="1">
          <mxGeometry x="205" y="400" width="90" height="50" as="geometry" />
        </mxCell>
        <mxCell id="fEkHNfi3PRAmqrXVhBV--29" value="" style="verticalLabelPosition=bottom;verticalAlign=top;html=1;shape=hexagon;perimeter=hexagonPerimeter2;arcSize=6;size=0.27;fontSize=12;fontFamily=Times New Roman;" vertex="1" parent="1">
          <mxGeometry x="335" y="380" width="130" height="80" as="geometry" />
        </mxCell>
        <mxCell id="fEkHNfi3PRAmqrXVhBV--30" value="" style="verticalLabelPosition=bottom;verticalAlign=top;html=1;shape=hexagon;perimeter=hexagonPerimeter2;arcSize=6;size=0.27;fontSize=12;fontFamily=Times New Roman;" vertex="1" parent="1">
          <mxGeometry x="382.5" y="380" width="35" height="20" as="geometry" />
        </mxCell>
        <mxCell id="fEkHNfi3PRAmqrXVhBV--31" value="8" style="text;html=1;strokeColor=none;fillColor=none;align=center;verticalAlign=middle;whiteSpace=wrap;rounded=0;fontSize=12;fontFamily=Times New Roman;" vertex="1" parent="1">
          <mxGeometry x="385" y="380" width="30" height="20" as="geometry" />
        </mxCell>
        <mxCell id="fEkHNfi3PRAmqrXVhBV--32" value="&lt;div style=&quot;color: rgb(33, 33, 33); font-family: Menlo, Monaco, &amp;quot;Courier New&amp;quot;, monospace; line-height: 18px;&quot;&gt;&lt;font style=&quot;font-size: 11px;&quot;&gt;The Master and Margarita&lt;/font&gt;&lt;/div&gt;" style="text;html=1;strokeColor=none;fillColor=none;align=center;verticalAlign=middle;whiteSpace=wrap;rounded=0;fontSize=12;fontFamily=Times New Roman;" vertex="1" parent="1">
          <mxGeometry x="355" y="400" width="90" height="50" as="geometry" />
        </mxCell>
        <mxCell id="fEkHNfi3PRAmqrXVhBV--33" value="" style="verticalLabelPosition=bottom;verticalAlign=top;html=1;shape=hexagon;perimeter=hexagonPerimeter2;arcSize=6;size=0.27;fontSize=12;fontFamily=Times New Roman;" vertex="1" parent="1">
          <mxGeometry x="485" y="380" width="130" height="80" as="geometry" />
        </mxCell>
        <mxCell id="fEkHNfi3PRAmqrXVhBV--34" value="" style="verticalLabelPosition=bottom;verticalAlign=top;html=1;shape=hexagon;perimeter=hexagonPerimeter2;arcSize=6;size=0.27;fontSize=12;fontFamily=Times New Roman;" vertex="1" parent="1">
          <mxGeometry x="532.5" y="380" width="35" height="20" as="geometry" />
        </mxCell>
        <mxCell id="fEkHNfi3PRAmqrXVhBV--35" value="9" style="text;html=1;strokeColor=none;fillColor=none;align=center;verticalAlign=middle;whiteSpace=wrap;rounded=0;fontSize=12;fontFamily=Times New Roman;" vertex="1" parent="1">
          <mxGeometry x="535" y="380" width="30" height="20" as="geometry" />
        </mxCell>
        <mxCell id="fEkHNfi3PRAmqrXVhBV--36" value="&lt;div style=&quot;color: rgb(33, 33, 33); background-color: rgb(255, 255, 254); font-family: Menlo, Monaco, &amp;quot;Courier New&amp;quot;, monospace; line-height: 18px; font-size: 11px;&quot;&gt;Three Comrades&lt;/div&gt;" style="text;html=1;strokeColor=none;fillColor=none;align=center;verticalAlign=middle;whiteSpace=wrap;rounded=0;fontSize=12;fontFamily=Times New Roman;" vertex="1" parent="1">
          <mxGeometry x="505" y="400" width="90" height="50" as="geometry" />
        </mxCell>
        <mxCell id="fEkHNfi3PRAmqrXVhBV--37" value="" style="verticalLabelPosition=bottom;verticalAlign=top;html=1;shape=hexagon;perimeter=hexagonPerimeter2;arcSize=6;size=0.27;fontSize=10;" vertex="1" parent="1">
          <mxGeometry x="635" y="380" width="130" height="80" as="geometry" />
        </mxCell>
        <mxCell id="fEkHNfi3PRAmqrXVhBV--38" value="" style="verticalLabelPosition=bottom;verticalAlign=top;html=1;shape=hexagon;perimeter=hexagonPerimeter2;arcSize=6;size=0.27;fontSize=12;fontFamily=Times New Roman;" vertex="1" parent="1">
          <mxGeometry x="682.5" y="380" width="35" height="20" as="geometry" />
        </mxCell>
        <mxCell id="fEkHNfi3PRAmqrXVhBV--39" value="10" style="text;html=1;strokeColor=none;fillColor=none;align=center;verticalAlign=middle;whiteSpace=wrap;rounded=0;fontSize=12;fontFamily=Times New Roman;" vertex="1" parent="1">
          <mxGeometry x="685" y="380" width="30" height="20" as="geometry" />
        </mxCell>
        <mxCell id="fEkHNfi3PRAmqrXVhBV--40" value="&lt;div style=&quot;color: rgb(33, 33, 33); background-color: rgb(255, 255, 254); font-family: Menlo, Monaco, &amp;quot;Courier New&amp;quot;, monospace; line-height: 18px; font-size: 11px;&quot;&gt;Brave New World&lt;/div&gt;" style="text;html=1;strokeColor=none;fillColor=none;align=center;verticalAlign=middle;whiteSpace=wrap;rounded=0;fontSize=12;fontFamily=Times New Roman;" vertex="1" parent="1">
          <mxGeometry x="655" y="400" width="90" height="50" as="geometry" />
        </mxCell>
        <mxCell id="5KOuMF5uExeDugGcJufJ-1" value="&lt;div style=&quot;color: rgb(33, 33, 33); background-color: rgb(255, 255, 254); font-family: Menlo, Monaco, &amp;quot;Courier New&amp;quot;, monospace; line-height: 18px;&quot;&gt;Ivan&lt;/div&gt;" style="ellipse;whiteSpace=wrap;html=1;aspect=fixed;" vertex="1" parent="1">
          <mxGeometry x="355" y="510" width="80" height="80" as="geometry" />
        </mxCell>
        <mxCell id="5KOuMF5uExeDugGcJufJ-2" value="&lt;b&gt;1&lt;/b&gt;" style="ellipse;whiteSpace=wrap;html=1;aspect=fixed;" vertex="1" parent="1">
          <mxGeometry x="385" y="510" width="20" height="20" as="geometry" />
        </mxCell>
        <mxCell id="5KOuMF5uExeDugGcJufJ-3" value="&lt;div style=&quot;color: rgb(33, 33, 33); background-color: rgb(255, 255, 254); font-family: Menlo, Monaco, &amp;quot;Courier New&amp;quot;, monospace; line-height: 18px;&quot;&gt;Alexey&lt;/div&gt;" style="ellipse;whiteSpace=wrap;html=1;aspect=fixed;" vertex="1" parent="1">
          <mxGeometry x="360" y="180" width="80" height="80" as="geometry" />
        </mxCell>
        <mxCell id="5KOuMF5uExeDugGcJufJ-4" value="&lt;div style=&quot;color: rgb(33, 33, 33); background-color: rgb(255, 255, 254); font-family: Menlo, Monaco, &amp;quot;Courier New&amp;quot;, monospace; line-height: 18px;&quot;&gt;Elena&lt;/div&gt;" style="ellipse;whiteSpace=wrap;html=1;aspect=fixed;" vertex="1" parent="1">
          <mxGeometry x="655" y="510" width="80" height="80" as="geometry" />
        </mxCell>
        <mxCell id="5KOuMF5uExeDugGcJufJ-5" value="&lt;div style=&quot;color: rgb(33, 33, 33); background-color: rgb(255, 255, 254); font-family: Menlo, Monaco, &amp;quot;Courier New&amp;quot;, monospace; line-height: 18px;&quot;&gt;Maria&lt;/div&gt;" style="ellipse;whiteSpace=wrap;html=1;aspect=fixed;" vertex="1" parent="1">
          <mxGeometry x="505" y="180" width="80" height="80" as="geometry" />
        </mxCell>
        <mxCell id="5KOuMF5uExeDugGcJufJ-6" value="Dmitry" style="ellipse;whiteSpace=wrap;html=1;aspect=fixed;" vertex="1" parent="1">
          <mxGeometry x="210" y="180" width="80" height="80" as="geometry" />
        </mxCell>
        <mxCell id="5KOuMF5uExeDugGcJufJ-7" value="&lt;div style=&quot;color: rgb(33, 33, 33); background-color: rgb(255, 255, 254); font-family: Menlo, Monaco, &amp;quot;Courier New&amp;quot;, monospace; line-height: 18px;&quot;&gt;Anna&lt;br&gt;&lt;/div&gt;" style="ellipse;whiteSpace=wrap;html=1;aspect=fixed;" vertex="1" parent="1">
          <mxGeometry x="60" y="180" width="80" height="80" as="geometry" />
        </mxCell>
        <mxCell id="5KOuMF5uExeDugGcJufJ-8" value="&lt;div style=&quot;color: rgb(33, 33, 33); background-color: rgb(255, 255, 254); font-family: Menlo, Monaco, &amp;quot;Courier New&amp;quot;, monospace; line-height: 18px;&quot;&gt;Alexandra&lt;br&gt;&lt;/div&gt;" style="ellipse;whiteSpace=wrap;html=1;aspect=fixed;" vertex="1" parent="1">
          <mxGeometry x="505" y="510" width="80" height="80" as="geometry" />
        </mxCell>
        <mxCell id="5KOuMF5uExeDugGcJufJ-9" value="&lt;div style=&quot;color: rgb(33, 33, 33); background-color: rgb(255, 255, 254); font-family: Menlo, Monaco, &amp;quot;Courier New&amp;quot;, monospace; line-height: 18px;&quot;&gt;Peter&lt;br&gt;&lt;/div&gt;" style="ellipse;whiteSpace=wrap;html=1;aspect=fixed;" vertex="1" parent="1">
          <mxGeometry x="655" y="180" width="80" height="80" as="geometry" />
        </mxCell>
        <mxCell id="5KOuMF5uExeDugGcJufJ-10" value="&lt;div style=&quot;color: rgb(33, 33, 33); background-color: rgb(255, 255, 254); font-family: Menlo, Monaco, &amp;quot;Courier New&amp;quot;, monospace; line-height: 18px;&quot;&gt;&lt;div style=&quot;line-height: 18px;&quot;&gt;Natalia&lt;/div&gt;&lt;/div&gt;" style="ellipse;whiteSpace=wrap;html=1;aspect=fixed;" vertex="1" parent="1">
          <mxGeometry x="55" y="510" width="80" height="80" as="geometry" />
        </mxCell>
        <mxCell id="5KOuMF5uExeDugGcJufJ-11" value="&lt;div style=&quot;color: rgb(33, 33, 33); background-color: rgb(255, 255, 254); font-family: Menlo, Monaco, &amp;quot;Courier New&amp;quot;, monospace; line-height: 18px;&quot;&gt;Andrew&lt;/div&gt;" style="ellipse;whiteSpace=wrap;html=1;aspect=fixed;" vertex="1" parent="1">
          <mxGeometry x="210" y="505" width="80" height="80" as="geometry" />
        </mxCell>
        <mxCell id="5KOuMF5uExeDugGcJufJ-12" value="&lt;b&gt;2&lt;/b&gt;" style="ellipse;whiteSpace=wrap;html=1;aspect=fixed;" vertex="1" parent="1">
          <mxGeometry x="390" y="180" width="20" height="20" as="geometry" />
        </mxCell>
        <mxCell id="5KOuMF5uExeDugGcJufJ-13" value="&lt;b&gt;3&lt;/b&gt;" style="ellipse;whiteSpace=wrap;html=1;aspect=fixed;" vertex="1" parent="1">
          <mxGeometry x="685" y="510" width="20" height="20" as="geometry" />
        </mxCell>
        <mxCell id="5KOuMF5uExeDugGcJufJ-14" value="&lt;b&gt;4&lt;/b&gt;" style="ellipse;whiteSpace=wrap;html=1;aspect=fixed;" vertex="1" parent="1">
          <mxGeometry x="535" y="180" width="20" height="20" as="geometry" />
        </mxCell>
        <mxCell id="5KOuMF5uExeDugGcJufJ-15" value="&lt;b&gt;5&lt;/b&gt;" style="ellipse;whiteSpace=wrap;html=1;aspect=fixed;" vertex="1" parent="1">
          <mxGeometry x="240" y="180" width="20" height="20" as="geometry" />
        </mxCell>
        <mxCell id="5KOuMF5uExeDugGcJufJ-16" value="&lt;b&gt;6&lt;/b&gt;" style="ellipse;whiteSpace=wrap;html=1;aspect=fixed;" vertex="1" parent="1">
          <mxGeometry x="90" y="180" width="20" height="20" as="geometry" />
        </mxCell>
        <mxCell id="5KOuMF5uExeDugGcJufJ-17" value="&lt;b&gt;7&lt;/b&gt;" style="ellipse;whiteSpace=wrap;html=1;aspect=fixed;" vertex="1" parent="1">
          <mxGeometry x="535" y="510" width="20" height="20" as="geometry" />
        </mxCell>
        <mxCell id="5KOuMF5uExeDugGcJufJ-18" value="&lt;b&gt;8&lt;/b&gt;" style="ellipse;whiteSpace=wrap;html=1;aspect=fixed;" vertex="1" parent="1">
          <mxGeometry x="685" y="180" width="20" height="20" as="geometry" />
        </mxCell>
        <mxCell id="5KOuMF5uExeDugGcJufJ-19" value="&lt;b&gt;9&lt;/b&gt;" style="ellipse;whiteSpace=wrap;html=1;aspect=fixed;" vertex="1" parent="1">
          <mxGeometry x="85" y="510" width="20" height="20" as="geometry" />
        </mxCell>
        <mxCell id="5KOuMF5uExeDugGcJufJ-20" value="&lt;b&gt;10&lt;/b&gt;" style="ellipse;whiteSpace=wrap;html=1;aspect=fixed;" vertex="1" parent="1">
          <mxGeometry x="240" y="505" width="20" height="20" as="geometry" />
        </mxCell>
        <mxCell id="KZZyqYE1Am1O7cTLdlcc-1" value="" style="endArrow=classic;html=1;rounded=0;exitX=0.5;exitY=1;exitDx=0;exitDy=0;entryX=1;entryY=0;entryDx=0;entryDy=0;" edge="1" parent="1" source="fEkHNfi3PRAmqrXVhBV--1" target="5KOuMF5uExeDugGcJufJ-16">
          <mxGeometry width="50" height="50" relative="1" as="geometry">
            <mxPoint x="400" y="360" as="sourcePoint" />
            <mxPoint x="450" y="310" as="targetPoint" />
          </mxGeometry>
        </mxCell>
        <mxCell id="KZZyqYE1Am1O7cTLdlcc-2" value="" style="endArrow=classic;html=1;rounded=0;exitX=0.5;exitY=1;exitDx=0;exitDy=0;entryX=0.5;entryY=0;entryDx=0;entryDy=0;" edge="1" parent="1" source="fEkHNfi3PRAmqrXVhBV--5" target="5KOuMF5uExeDugGcJufJ-15">
          <mxGeometry width="50" height="50" relative="1" as="geometry">
            <mxPoint x="410" y="370" as="sourcePoint" />
            <mxPoint x="460" y="320" as="targetPoint" />
          </mxGeometry>
        </mxCell>
        <mxCell id="KZZyqYE1Am1O7cTLdlcc-3" value="" style="endArrow=classic;html=1;rounded=0;exitX=0.5;exitY=1;exitDx=0;exitDy=0;" edge="1" parent="1" source="fEkHNfi3PRAmqrXVhBV--9" target="5KOuMF5uExeDugGcJufJ-3">
          <mxGeometry width="50" height="50" relative="1" as="geometry">
            <mxPoint x="420" y="140" as="sourcePoint" />
            <mxPoint x="470" y="330" as="targetPoint" />
          </mxGeometry>
        </mxCell>
        <mxCell id="KZZyqYE1Am1O7cTLdlcc-4" value="" style="endArrow=classic;html=1;rounded=0;exitX=0.5;exitY=1;exitDx=0;exitDy=0;entryX=1;entryY=0;entryDx=0;entryDy=0;" edge="1" parent="1" source="fEkHNfi3PRAmqrXVhBV--16" target="5KOuMF5uExeDugGcJufJ-14">
          <mxGeometry width="50" height="50" relative="1" as="geometry">
            <mxPoint x="430" y="390" as="sourcePoint" />
            <mxPoint x="480" y="340" as="targetPoint" />
          </mxGeometry>
        </mxCell>
        <mxCell id="KZZyqYE1Am1O7cTLdlcc-5" value="" style="endArrow=classic;html=1;rounded=0;exitX=0.5;exitY=1;exitDx=0;exitDy=0;entryX=1;entryY=0;entryDx=0;entryDy=0;" edge="1" parent="1" source="fEkHNfi3PRAmqrXVhBV--17" target="5KOuMF5uExeDugGcJufJ-18">
          <mxGeometry width="50" height="50" relative="1" as="geometry">
            <mxPoint x="440" y="400" as="sourcePoint" />
            <mxPoint x="490" y="350" as="targetPoint" />
          </mxGeometry>
        </mxCell>
        <mxCell id="KZZyqYE1Am1O7cTLdlcc-6" value="" style="endArrow=classic;html=1;rounded=0;exitX=0.5;exitY=1;exitDx=0;exitDy=0;entryX=0;entryY=0;entryDx=0;entryDy=0;" edge="1" parent="1" source="fEkHNfi3PRAmqrXVhBV--21" target="5KOuMF5uExeDugGcJufJ-19">
          <mxGeometry width="50" height="50" relative="1" as="geometry">
            <mxPoint x="110" y="480" as="sourcePoint" />
            <mxPoint x="500" y="360" as="targetPoint" />
          </mxGeometry>
        </mxCell>
        <mxCell id="KZZyqYE1Am1O7cTLdlcc-7" value="" style="endArrow=classic;html=1;rounded=0;exitX=0.5;exitY=1;exitDx=0;exitDy=0;entryX=0.5;entryY=0;entryDx=0;entryDy=0;" edge="1" parent="1" source="fEkHNfi3PRAmqrXVhBV--25" target="5KOuMF5uExeDugGcJufJ-20">
          <mxGeometry width="50" height="50" relative="1" as="geometry">
            <mxPoint x="460" y="420" as="sourcePoint" />
            <mxPoint x="510" y="370" as="targetPoint" />
          </mxGeometry>
        </mxCell>
        <mxCell id="KZZyqYE1Am1O7cTLdlcc-8" value="" style="endArrow=classic;html=1;rounded=0;exitX=0.5;exitY=1;exitDx=0;exitDy=0;entryX=0.5;entryY=0;entryDx=0;entryDy=0;" edge="1" parent="1" source="fEkHNfi3PRAmqrXVhBV--29" target="5KOuMF5uExeDugGcJufJ-2">
          <mxGeometry width="50" height="50" relative="1" as="geometry">
            <mxPoint x="470" y="430" as="sourcePoint" />
            <mxPoint x="520" y="380" as="targetPoint" />
          </mxGeometry>
        </mxCell>
        <mxCell id="KZZyqYE1Am1O7cTLdlcc-9" value="" style="endArrow=classic;html=1;rounded=0;exitX=0.5;exitY=1;exitDx=0;exitDy=0;entryX=0.5;entryY=0;entryDx=0;entryDy=0;" edge="1" parent="1" source="fEkHNfi3PRAmqrXVhBV--33" target="5KOuMF5uExeDugGcJufJ-17">
          <mxGeometry width="50" height="50" relative="1" as="geometry">
            <mxPoint x="480" y="440" as="sourcePoint" />
            <mxPoint x="530" y="390" as="targetPoint" />
          </mxGeometry>
        </mxCell>
        <mxCell id="KZZyqYE1Am1O7cTLdlcc-10" value="" style="endArrow=classic;html=1;rounded=0;exitX=0.5;exitY=1;exitDx=0;exitDy=0;entryX=0.5;entryY=0;entryDx=0;entryDy=0;" edge="1" parent="1" source="fEkHNfi3PRAmqrXVhBV--37" target="5KOuMF5uExeDugGcJufJ-13">
          <mxGeometry width="50" height="50" relative="1" as="geometry">
            <mxPoint x="490" y="450" as="sourcePoint" />
            <mxPoint x="540" y="400" as="targetPoint" />
          </mxGeometry>
        </mxCell>
      </root>
    </mxGraphModel>
  </diagram>
</mxfile>
